solid OpenSCAD_Model
  facet normal -1.000000 -0.000000 -0.000000
    outer loop
      vertex -50.000000 5.000000 0.000000
      vertex -50.000000 5.000000 25.000000
      vertex -50.000000 15.000000 0.000000
    endloop
  endfacet
  facet normal -1.000000 0.000000 0.000000
    outer loop
      vertex -50.000000 15.000000 0.000000
      vertex -50.000000 5.000000 25.000000
      vertex -50.000000 15.000000 25.000000
    endloop
  endfacet
  facet normal 0.000000 -1.000000 0.000000
    outer loop
      vertex -50.000000 5.000000 25.000000
      vertex -50.000000 5.000000 0.000000
      vertex -40.000000 5.000000 0.000000
    endloop
  endfacet
  facet normal 0.000000 -1.000000 0.000000
    outer loop
      vertex -40.000000 5.000000 25.000000
      vertex -50.000000 5.000000 25.000000
      vertex -40.000000 5.000000 0.000000
    endloop
  endfacet
  facet normal -0.000000 -0.000000 -1.000000
    outer loop
      vertex -50.000000 5.000000 0.000000
      vertex -50.000000 15.000000 0.000000
      vertex -40.000000 5.000000 0.000000
    endloop
  endfacet
  facet normal 0.000000 -0.000000 -1.000000
    outer loop
      vertex -40.000000 5.000000 0.000000
      vertex -50.000000 15.000000 0.000000
      vertex -36.954293 15.000000 0.000000
    endloop
  endfacet
  facet normal 0.000000 0.000000 -1.000000
    outer loop
      vertex -40.000000 5.000000 0.000000
      vertex -36.954293 15.000000 0.000000
      vertex -36.541818 16.269466 0.000000
    endloop
  endfacet
  facet normal 0.000000 0.000000 -1.000000
    outer loop
      vertex -40.000000 5.000000 0.000000
      vertex -36.541818 16.269466 0.000000
      vertex -32.360680 23.511410 0.000000
    endloop
  endfacet
  facet normal 0.000000 0.000000 -1.000000
    outer loop
      vertex -40.000000 5.000000 0.000000
      vertex -32.360680 23.511410 0.000000
      vertex -26.765224 29.725793 0.000000
    endloop
  endfacet
  facet normal 0.000000 0.000000 -1.000000
    outer loop
      vertex -40.000000 5.000000 0.000000
      vertex -26.765224 29.725793 0.000000
      vertex -20.000000 34.641016 0.000000
    endloop
  endfacet
  facet normal 0.000000 0.000000 -1.000000
    outer loop
      vertex -40.000000 5.000000 0.000000
      vertex -20.000000 34.641016 0.000000
      vertex -12.360680 38.042261 0.000000
    endloop
  endfacet
  facet normal 0.000000 0.000000 -1.000000
    outer loop
      vertex -40.000000 5.000000 0.000000
      vertex -12.360680 38.042261 0.000000
      vertex -4.181139 39.780876 0.000000
    endloop
  endfacet
  facet normal 0.000000 0.000000 -1.000000
    outer loop
      vertex -40.000000 5.000000 0.000000
      vertex -4.181139 39.780876 0.000000
      vertex 4.181139 39.780876 0.000000
    endloop
  endfacet
  facet normal 0.000000 0.000000 -1.000000
    outer loop
      vertex -8.806984 27.105111 0.000000
      vertex 4.181139 39.780876 0.000000
      vertex 12.360680 38.042261 0.000000
    endloop
  endfacet
  facet normal 0.000000 0.000000 -1.000000
    outer loop
      vertex 2.979061 28.343874 0.000000
      vertex 12.360680 38.042261 0.000000
      vertex 20.000000 34.641016 0.000000
    endloop
  endfacet
  facet normal 0.000000 0.000000 -1.000000
    outer loop
      vertex 8.806984 27.105111 0.000000
      vertex 20.000000 34.641016 0.000000
      vertex 26.765224 29.725793 0.000000
    endloop
  endfacet
  facet normal 0.000000 0.000000 -1.000000
    outer loop
      vertex 19.070222 21.179628 0.000000
      vertex 26.765224 29.725793 0.000000
      vertex 32.360680 23.511410 0.000000
    endloop
  endfacet
  facet normal -0.000000 0.000000 -1.000000
    outer loop
      vertex 23.056984 16.751880 0.000000
      vertex 32.360680 23.511410 0.000000
      vertex 36.541818 16.269466 0.000000
    endloop
  endfacet
  facet normal -0.000000 0.000000 -1.000000
    outer loop
      vertex 40.000000 5.000000 0.000000
      vertex 50.000000 15.000000 0.000000
      vertex 50.000000 5.000000 0.000000
    endloop
  endfacet
  facet normal -0.000000 0.000000 -1.000000
    outer loop
      vertex 27.974479 5.000000 0.000000
      vertex 50.000000 15.000000 0.000000
      vertex 40.000000 5.000000 0.000000
    endloop
  endfacet
  facet normal -0.000000 0.000000 -1.000000
    outer loop
      vertex 27.877207 5.925483 0.000000
      vertex 50.000000 15.000000 0.000000
      vertex 27.974479 5.000000 0.000000
    endloop
  endfacet
  facet normal -0.000000 0.000000 -1.000000
    outer loop
      vertex 26.036046 11.591994 0.000000
      vertex 50.000000 15.000000 0.000000
      vertex 27.877207 5.925483 0.000000
    endloop
  endfacet
  facet normal -0.000000 0.000000 -1.000000
    outer loop
      vertex 19.070222 21.179628 0.000000
      vertex 32.360680 23.511410 0.000000
      vertex 23.056984 16.751880 0.000000
    endloop
  endfacet
  facet normal -0.000000 0.000000 -1.000000
    outer loop
      vertex 14.250000 24.681724 0.000000
      vertex 26.765224 29.725793 0.000000
      vertex 19.070222 21.179628 0.000000
    endloop
  endfacet
  facet normal -0.000000 0.000000 -1.000000
    outer loop
      vertex 8.806984 27.105111 0.000000
      vertex 26.765224 29.725793 0.000000
      vertex 14.250000 24.681724 0.000000
    endloop
  endfacet
  facet normal 0.000000 -0.000000 -1.000000
    outer loop
      vertex -27.877207 5.925483 0.000000
      vertex -40.000000 5.000000 0.000000
      vertex -26.036046 11.591994 0.000000
    endloop
  endfacet
  facet normal -0.000000 0.000000 -1.000000
    outer loop
      vertex 2.979061 28.343874 0.000000
      vertex 20.000000 34.641016 0.000000
      vertex 8.806984 27.105111 0.000000
    endloop
  endfacet
  facet normal -0.000000 0.000000 -1.000000
    outer loop
      vertex -2.979061 28.343874 0.000000
      vertex 12.360680 38.042261 0.000000
      vertex 2.979061 28.343874 0.000000
    endloop
  endfacet
  facet normal 0.000000 0.000000 -1.000000
    outer loop
      vertex -8.806984 27.105111 0.000000
      vertex 12.360680 38.042261 0.000000
      vertex -2.979061 28.343874 0.000000
    endloop
  endfacet
  facet normal 0.000000 0.000000 -1.000000
    outer loop
      vertex -14.250000 24.681724 0.000000
      vertex 4.181139 39.780876 0.000000
      vertex -8.806984 27.105111 0.000000
    endloop
  endfacet
  facet normal 0.000000 -0.000000 -1.000000
    outer loop
      vertex -23.056984 16.751880 0.000000
      vertex -40.000000 5.000000 0.000000
      vertex -19.070222 21.179628 0.000000
    endloop
  endfacet
  facet normal 0.000000 0.000000 -1.000000
    outer loop
      vertex -19.070222 21.179628 0.000000
      vertex 4.181139 39.780876 0.000000
      vertex -14.250000 24.681724 0.000000
    endloop
  endfacet
  facet normal 0.000000 0.000000 -1.000000
    outer loop
      vertex -40.000000 5.000000 0.000000
      vertex 4.181139 39.780876 0.000000
      vertex -19.070222 21.179628 0.000000
    endloop
  endfacet
  facet normal 0.000000 -0.000000 -1.000000
    outer loop
      vertex -26.036046 11.591994 0.000000
      vertex -40.000000 5.000000 0.000000
      vertex -23.056984 16.751880 0.000000
    endloop
  endfacet
  facet normal 0.000000 -0.000000 -1.000000
    outer loop
      vertex -27.974479 5.000000 0.000000
      vertex -40.000000 5.000000 0.000000
      vertex -27.877207 5.925483 0.000000
    endloop
  endfacet
  facet normal 0.000000 0.000000 -1.000000
    outer loop
      vertex 23.056984 16.751880 0.000000
      vertex 36.541818 16.269466 0.000000
      vertex 36.954293 15.000000 0.000000
    endloop
  endfacet
  facet normal 0.000000 0.000000 -1.000000
    outer loop
      vertex 36.954293 15.000000 0.000000
      vertex 50.000000 15.000000 0.000000
      vertex 26.036046 11.591994 0.000000
    endloop
  endfacet
  facet normal 0.000000 0.000000 -1.000000
    outer loop
      vertex 23.056984 16.751880 0.000000
      vertex 36.954293 15.000000 0.000000
      vertex 26.036046 11.591994 0.000000
    endloop
  endfacet
  facet normal 0.000000 1.000000 0.000000
    outer loop
      vertex -50.000000 15.000000 0.000000
      vertex -50.000000 15.000000 25.000000
      vertex -36.954293 15.000000 0.000000
    endloop
  endfacet
  facet normal 0.000000 1.000000 0.000000
    outer loop
      vertex -36.954293 15.000000 0.000000
      vertex -50.000000 15.000000 25.000000
      vertex -36.954293 15.000000 25.000000
    endloop
  endfacet
  facet normal 0.000000 -0.000000 1.000000
    outer loop
      vertex -50.000000 15.000000 25.000000
      vertex -50.000000 5.000000 25.000000
      vertex -40.000000 5.000000 25.000000
    endloop
  endfacet
  facet normal -0.000000 0.000000 1.000000
    outer loop
      vertex -27.877207 5.925483 25.000000
      vertex -50.000000 15.000000 25.000000
      vertex -27.974479 5.000000 25.000000
    endloop
  endfacet
  facet normal -0.000000 0.000000 1.000000
    outer loop
      vertex -27.974479 5.000000 25.000000
      vertex -50.000000 15.000000 25.000000
      vertex -40.000000 5.000000 25.000000
    endloop
  endfacet
  facet normal -0.000000 0.000000 1.000000
    outer loop
      vertex -26.036046 11.591994 25.000000
      vertex -50.000000 15.000000 25.000000
      vertex -27.877207 5.925483 25.000000
    endloop
  endfacet
  facet normal 0.000000 -0.000000 1.000000
    outer loop
      vertex -36.954293 15.000000 25.000000
      vertex -50.000000 15.000000 25.000000
      vertex -26.036046 11.591994 25.000000
    endloop
  endfacet
  facet normal 0.000000 -0.000000 1.000000
    outer loop
      vertex -36.541818 16.269466 25.000000
      vertex -36.954293 15.000000 25.000000
      vertex -23.056984 16.751880 25.000000
    endloop
  endfacet
  facet normal 0.000000 0.000000 1.000000
    outer loop
      vertex 20.000000 34.641016 25.000000
      vertex -8.806984 27.105111 25.000000
      vertex -2.979061 28.343874 25.000000
    endloop
  endfacet
  facet normal 0.000000 0.000000 1.000000
    outer loop
      vertex 26.765224 29.725793 25.000000
      vertex -2.979061 28.343874 25.000000
      vertex 2.979061 28.343874 25.000000
    endloop
  endfacet
  facet normal 0.000000 0.000000 1.000000
    outer loop
      vertex 32.360680 23.511410 25.000000
      vertex 2.979061 28.343874 25.000000
      vertex 8.806984 27.105111 25.000000
    endloop
  endfacet
  facet normal 0.000000 0.000000 1.000000
    outer loop
      vertex -26.765224 29.725793 25.000000
      vertex -4.181139 39.780876 25.000000
      vertex -12.360680 38.042261 25.000000
    endloop
  endfacet
  facet normal 0.000000 0.000000 1.000000
    outer loop
      vertex 50.000000 5.000000 25.000000
      vertex 14.250000 24.681724 25.000000
      vertex 19.070222 21.179628 25.000000
    endloop
  endfacet
  facet normal 0.000000 0.000000 1.000000
    outer loop
      vertex 40.000000 5.000000 25.000000
      vertex 19.070222 21.179628 25.000000
      vertex 23.056984 16.751880 25.000000
    endloop
  endfacet
  facet normal 0.000000 0.000000 1.000000
    outer loop
      vertex 40.000000 5.000000 25.000000
      vertex 23.056984 16.751880 25.000000
      vertex 26.036046 11.591994 25.000000
    endloop
  endfacet
  facet normal 0.000000 0.000000 1.000000
    outer loop
      vertex 40.000000 5.000000 25.000000
      vertex 26.036046 11.591994 25.000000
      vertex 27.877207 5.925483 25.000000
    endloop
  endfacet
  facet normal -0.000000 0.000000 1.000000
    outer loop
      vertex 40.000000 5.000000 25.000000
      vertex 27.877207 5.925483 25.000000
      vertex 27.974479 5.000000 25.000000
    endloop
  endfacet
  facet normal -0.000000 0.000000 1.000000
    outer loop
      vertex 50.000000 5.000000 25.000000
      vertex 19.070222 21.179628 25.000000
      vertex 40.000000 5.000000 25.000000
    endloop
  endfacet
  facet normal -0.000000 -0.000000 1.000000
    outer loop
      vertex 36.954293 15.000000 25.000000
      vertex 14.250000 24.681724 25.000000
      vertex 50.000000 5.000000 25.000000
    endloop
  endfacet
  facet normal 0.000000 0.000000 1.000000
    outer loop
      vertex 50.000000 15.000000 25.000000
      vertex 36.954293 15.000000 25.000000
      vertex 50.000000 5.000000 25.000000
    endloop
  endfacet
  facet normal -0.000000 -0.000000 1.000000
    outer loop
      vertex 36.541818 16.269466 25.000000
      vertex 14.250000 24.681724 25.000000
      vertex 36.954293 15.000000 25.000000
    endloop
  endfacet
  facet normal 0.000000 -0.000000 1.000000
    outer loop
      vertex -26.765224 29.725793 25.000000
      vertex -32.360680 23.511410 25.000000
      vertex -4.181139 39.780876 25.000000
    endloop
  endfacet
  facet normal 0.000000 -0.000000 1.000000
    outer loop
      vertex 26.765224 29.725793 25.000000
      vertex 2.979061 28.343874 25.000000
      vertex 32.360680 23.511410 25.000000
    endloop
  endfacet
  facet normal 0.000000 -0.000000 1.000000
    outer loop
      vertex 20.000000 34.641016 25.000000
      vertex -2.979061 28.343874 25.000000
      vertex 26.765224 29.725793 25.000000
    endloop
  endfacet
  facet normal 0.000000 -0.000000 1.000000
    outer loop
      vertex 12.360680 38.042261 25.000000
      vertex -8.806984 27.105111 25.000000
      vertex 20.000000 34.641016 25.000000
    endloop
  endfacet
  facet normal 0.000000 0.000000 1.000000
    outer loop
      vertex -32.360680 23.511410 25.000000
      vertex 12.360680 38.042261 25.000000
      vertex 4.181139 39.780876 25.000000
    endloop
  endfacet
  facet normal 0.000000 0.000000 1.000000
    outer loop
      vertex -32.360680 23.511410 25.000000
      vertex -8.806984 27.105111 25.000000
      vertex 12.360680 38.042261 25.000000
    endloop
  endfacet
  facet normal 0.000000 -0.000000 1.000000
    outer loop
      vertex -20.000000 34.641016 25.000000
      vertex -26.765224 29.725793 25.000000
      vertex -12.360680 38.042261 25.000000
    endloop
  endfacet
  facet normal 0.000000 -0.000000 1.000000
    outer loop
      vertex -4.181139 39.780876 25.000000
      vertex -32.360680 23.511410 25.000000
      vertex 4.181139 39.780876 25.000000
    endloop
  endfacet
  facet normal 0.000000 0.000000 1.000000
    outer loop
      vertex -19.070222 21.179628 25.000000
      vertex -36.541818 16.269466 25.000000
      vertex -23.056984 16.751880 25.000000
    endloop
  endfacet
  facet normal 0.000000 0.000000 1.000000
    outer loop
      vertex -23.056984 16.751880 25.000000
      vertex -36.954293 15.000000 25.000000
      vertex -26.036046 11.591994 25.000000
    endloop
  endfacet
  facet normal 0.000000 0.000000 1.000000
    outer loop
      vertex 36.541818 16.269466 25.000000
      vertex 8.806984 27.105111 25.000000
      vertex 14.250000 24.681724 25.000000
    endloop
  endfacet
  facet normal 0.000000 0.000000 1.000000
    outer loop
      vertex 36.541818 16.269466 25.000000
      vertex 32.360680 23.511410 25.000000
      vertex 8.806984 27.105111 25.000000
    endloop
  endfacet
  facet normal 0.000000 0.000000 1.000000
    outer loop
      vertex -32.360680 23.511410 25.000000
      vertex -14.250000 24.681724 25.000000
      vertex -8.806984 27.105111 25.000000
    endloop
  endfacet
  facet normal 0.000000 0.000000 1.000000
    outer loop
      vertex -32.360680 23.511410 25.000000
      vertex -19.070222 21.179628 25.000000
      vertex -14.250000 24.681724 25.000000
    endloop
  endfacet
  facet normal 0.000000 -0.000000 1.000000
    outer loop
      vertex -32.360680 23.511410 25.000000
      vertex -36.541818 16.269466 25.000000
      vertex -19.070222 21.179628 25.000000
    endloop
  endfacet
  facet normal 0.000000 -1.000000 0.000000
    outer loop
      vertex -40.000000 5.000000 25.000000
      vertex -40.000000 5.000000 0.000000
      vertex -27.974479 5.000000 0.000000
    endloop
  endfacet
  facet normal 0.000000 -1.000000 0.000000
    outer loop
      vertex -27.974479 5.000000 25.000000
      vertex -40.000000 5.000000 25.000000
      vertex -27.974479 5.000000 0.000000
    endloop
  endfacet
  facet normal 0.994522 -0.104528 0.000000
    outer loop
      vertex -27.877207 5.925483 0.000000
      vertex -27.877207 5.925483 25.000000
      vertex -27.974479 5.000000 25.000000
    endloop
  endfacet
  facet normal 0.994522 -0.104528 0.000000
    outer loop
      vertex -27.974479 5.000000 0.000000
      vertex -27.877207 5.925483 0.000000
      vertex -27.974479 5.000000 25.000000
    endloop
  endfacet
  facet normal 0.951057 -0.309017 0.000000
    outer loop
      vertex -26.036046 11.591994 0.000000
      vertex -26.036046 11.591994 25.000000
      vertex -27.877207 5.925483 25.000000
    endloop
  endfacet
  facet normal 0.951057 -0.309017 0.000000
    outer loop
      vertex -27.877207 5.925483 0.000000
      vertex -26.036046 11.591994 0.000000
      vertex -27.877207 5.925483 25.000000
    endloop
  endfacet
  facet normal 0.866025 -0.500000 0.000000
    outer loop
      vertex -23.056984 16.751880 0.000000
      vertex -23.056984 16.751880 25.000000
      vertex -26.036046 11.591994 25.000000
    endloop
  endfacet
  facet normal 0.866025 -0.500000 0.000000
    outer loop
      vertex -26.036046 11.591994 0.000000
      vertex -23.056984 16.751880 0.000000
      vertex -26.036046 11.591994 25.000000
    endloop
  endfacet
  facet normal 0.743145 -0.669131 0.000000
    outer loop
      vertex -19.070222 21.179628 0.000000
      vertex -19.070222 21.179628 25.000000
      vertex -23.056984 16.751880 25.000000
    endloop
  endfacet
  facet normal 0.743145 -0.669131 0.000000
    outer loop
      vertex -23.056984 16.751880 0.000000
      vertex -19.070222 21.179628 0.000000
      vertex -23.056984 16.751880 25.000000
    endloop
  endfacet
  facet normal 0.587785 -0.809017 0.000000
    outer loop
      vertex -14.250000 24.681724 0.000000
      vertex -14.250000 24.681724 25.000000
      vertex -19.070222 21.179628 25.000000
    endloop
  endfacet
  facet normal 0.587785 -0.809017 0.000000
    outer loop
      vertex -19.070222 21.179628 0.000000
      vertex -14.250000 24.681724 0.000000
      vertex -19.070222 21.179628 25.000000
    endloop
  endfacet
  facet normal 0.406737 -0.913545 0.000000
    outer loop
      vertex -8.806984 27.105111 0.000000
      vertex -8.806984 27.105111 25.000000
      vertex -14.250000 24.681724 25.000000
    endloop
  endfacet
  facet normal 0.406737 -0.913545 0.000000
    outer loop
      vertex -14.250000 24.681724 0.000000
      vertex -8.806984 27.105111 0.000000
      vertex -14.250000 24.681724 25.000000
    endloop
  endfacet
  facet normal 0.207912 -0.978148 0.000000
    outer loop
      vertex -2.979061 28.343874 0.000000
      vertex -2.979061 28.343874 25.000000
      vertex -8.806984 27.105111 25.000000
    endloop
  endfacet
  facet normal 0.207912 -0.978148 0.000000
    outer loop
      vertex -8.806984 27.105111 0.000000
      vertex -2.979061 28.343874 0.000000
      vertex -8.806984 27.105111 25.000000
    endloop
  endfacet
  facet normal 0.000000 -1.000000 0.000000
    outer loop
      vertex 2.979061 28.343874 0.000000
      vertex 2.979061 28.343874 25.000000
      vertex -2.979061 28.343874 25.000000
    endloop
  endfacet
  facet normal -0.000000 -1.000000 -0.000000
    outer loop
      vertex -2.979061 28.343874 0.000000
      vertex 2.979061 28.343874 0.000000
      vertex -2.979061 28.343874 25.000000
    endloop
  endfacet
  facet normal -0.207912 -0.978148 -0.000000
    outer loop
      vertex 8.806984 27.105111 0.000000
      vertex 8.806984 27.105111 25.000000
      vertex 2.979061 28.343874 25.000000
    endloop
  endfacet
  facet normal -0.207912 -0.978148 -0.000000
    outer loop
      vertex 2.979061 28.343874 0.000000
      vertex 8.806984 27.105111 0.000000
      vertex 2.979061 28.343874 25.000000
    endloop
  endfacet
  facet normal -0.406737 -0.913545 -0.000000
    outer loop
      vertex 14.250000 24.681724 0.000000
      vertex 14.250000 24.681724 25.000000
      vertex 8.806984 27.105111 25.000000
    endloop
  endfacet
  facet normal -0.406737 -0.913545 -0.000000
    outer loop
      vertex 8.806984 27.105111 0.000000
      vertex 14.250000 24.681724 0.000000
      vertex 8.806984 27.105111 25.000000
    endloop
  endfacet
  facet normal -0.587785 -0.809017 -0.000000
    outer loop
      vertex 19.070222 21.179628 0.000000
      vertex 19.070222 21.179628 25.000000
      vertex 14.250000 24.681724 25.000000
    endloop
  endfacet
  facet normal -0.587785 -0.809017 -0.000000
    outer loop
      vertex 14.250000 24.681724 0.000000
      vertex 19.070222 21.179628 0.000000
      vertex 14.250000 24.681724 25.000000
    endloop
  endfacet
  facet normal -0.743145 -0.669131 0.000000
    outer loop
      vertex 23.056984 16.751880 25.000000
      vertex 19.070222 21.179628 25.000000
      vertex 23.056984 16.751880 0.000000
    endloop
  endfacet
  facet normal -0.743145 -0.669131 0.000000
    outer loop
      vertex 23.056984 16.751880 0.000000
      vertex 19.070222 21.179628 25.000000
      vertex 19.070222 21.179628 0.000000
    endloop
  endfacet
  facet normal -0.866025 -0.500000 0.000000
    outer loop
      vertex 26.036046 11.591994 25.000000
      vertex 23.056984 16.751880 25.000000
      vertex 26.036046 11.591994 0.000000
    endloop
  endfacet
  facet normal -0.866025 -0.500000 0.000000
    outer loop
      vertex 26.036046 11.591994 0.000000
      vertex 23.056984 16.751880 25.000000
      vertex 23.056984 16.751880 0.000000
    endloop
  endfacet
  facet normal -0.951057 -0.309017 0.000000
    outer loop
      vertex 27.877207 5.925483 25.000000
      vertex 26.036046 11.591994 25.000000
      vertex 27.877207 5.925483 0.000000
    endloop
  endfacet
  facet normal -0.951057 -0.309017 0.000000
    outer loop
      vertex 27.877207 5.925483 0.000000
      vertex 26.036046 11.591994 25.000000
      vertex 26.036046 11.591994 0.000000
    endloop
  endfacet
  facet normal -0.994522 -0.104528 0.000000
    outer loop
      vertex 27.974479 5.000000 25.000000
      vertex 27.877207 5.925483 25.000000
      vertex 27.974479 5.000000 0.000000
    endloop
  endfacet
  facet normal -0.994522 -0.104528 0.000000
    outer loop
      vertex 27.974479 5.000000 0.000000
      vertex 27.877207 5.925483 25.000000
      vertex 27.877207 5.925483 0.000000
    endloop
  endfacet
  facet normal 0.000000 -1.000000 0.000000
    outer loop
      vertex 27.974479 5.000000 25.000000
      vertex 27.974479 5.000000 0.000000
      vertex 40.000000 5.000000 0.000000
    endloop
  endfacet
  facet normal 0.000000 -1.000000 0.000000
    outer loop
      vertex 40.000000 5.000000 25.000000
      vertex 27.974479 5.000000 25.000000
      vertex 40.000000 5.000000 0.000000
    endloop
  endfacet
  facet normal 0.000000 -1.000000 0.000000
    outer loop
      vertex 40.000000 5.000000 25.000000
      vertex 40.000000 5.000000 0.000000
      vertex 50.000000 5.000000 0.000000
    endloop
  endfacet
  facet normal 0.000000 -1.000000 0.000000
    outer loop
      vertex 50.000000 5.000000 25.000000
      vertex 40.000000 5.000000 25.000000
      vertex 50.000000 5.000000 0.000000
    endloop
  endfacet
  facet normal 1.000000 0.000000 -0.000000
    outer loop
      vertex 50.000000 5.000000 25.000000
      vertex 50.000000 5.000000 0.000000
      vertex 50.000000 15.000000 0.000000
    endloop
  endfacet
  facet normal 1.000000 0.000000 0.000000
    outer loop
      vertex 50.000000 15.000000 25.000000
      vertex 50.000000 5.000000 25.000000
      vertex 50.000000 15.000000 0.000000
    endloop
  endfacet
  facet normal 0.000000 1.000000 0.000000
    outer loop
      vertex 36.954293 15.000000 0.000000
      vertex 36.954293 15.000000 25.000000
      vertex 50.000000 15.000000 0.000000
    endloop
  endfacet
  facet normal 0.000000 1.000000 0.000000
    outer loop
      vertex 50.000000 15.000000 0.000000
      vertex 36.954293 15.000000 25.000000
      vertex 50.000000 15.000000 25.000000
    endloop
  endfacet
  facet normal 0.951057 0.309017 0.000000
    outer loop
      vertex 36.954293 15.000000 0.000000
      vertex 36.541818 16.269466 0.000000
      vertex 36.541818 16.269466 25.000000
    endloop
  endfacet
  facet normal 0.951057 0.309017 -0.000000
    outer loop
      vertex 36.954293 15.000000 25.000000
      vertex 36.954293 15.000000 0.000000
      vertex 36.541818 16.269466 25.000000
    endloop
  endfacet
  facet normal 0.866025 0.500000 0.000000
    outer loop
      vertex 36.541818 16.269466 0.000000
      vertex 32.360680 23.511410 0.000000
      vertex 32.360680 23.511410 25.000000
    endloop
  endfacet
  facet normal 0.866025 0.500000 -0.000000
    outer loop
      vertex 36.541818 16.269466 25.000000
      vertex 36.541818 16.269466 0.000000
      vertex 32.360680 23.511410 25.000000
    endloop
  endfacet
  facet normal 0.743145 0.669131 0.000000
    outer loop
      vertex 32.360680 23.511410 0.000000
      vertex 26.765224 29.725793 0.000000
      vertex 26.765224 29.725793 25.000000
    endloop
  endfacet
  facet normal 0.743145 0.669131 -0.000000
    outer loop
      vertex 32.360680 23.511410 25.000000
      vertex 32.360680 23.511410 0.000000
      vertex 26.765224 29.725793 25.000000
    endloop
  endfacet
  facet normal 0.587785 0.809017 0.000000
    outer loop
      vertex 20.000000 34.641016 0.000000
      vertex 20.000000 34.641016 25.000000
      vertex 26.765224 29.725793 0.000000
    endloop
  endfacet
  facet normal 0.587785 0.809017 0.000000
    outer loop
      vertex 26.765224 29.725793 0.000000
      vertex 20.000000 34.641016 25.000000
      vertex 26.765224 29.725793 25.000000
    endloop
  endfacet
  facet normal 0.406737 0.913545 0.000000
    outer loop
      vertex 12.360680 38.042261 0.000000
      vertex 12.360680 38.042261 25.000000
      vertex 20.000000 34.641016 0.000000
    endloop
  endfacet
  facet normal 0.406737 0.913545 0.000000
    outer loop
      vertex 20.000000 34.641016 0.000000
      vertex 12.360680 38.042261 25.000000
      vertex 20.000000 34.641016 25.000000
    endloop
  endfacet
  facet normal 0.207912 0.978148 0.000000
    outer loop
      vertex 4.181139 39.780876 0.000000
      vertex 4.181139 39.780876 25.000000
      vertex 12.360680 38.042261 0.000000
    endloop
  endfacet
  facet normal 0.207912 0.978148 0.000000
    outer loop
      vertex 12.360680 38.042261 0.000000
      vertex 4.181139 39.780876 25.000000
      vertex 12.360680 38.042261 25.000000
    endloop
  endfacet
  facet normal 0.000000 1.000000 0.000000
    outer loop
      vertex -4.181139 39.780876 0.000000
      vertex -4.181139 39.780876 25.000000
      vertex 4.181139 39.780876 0.000000
    endloop
  endfacet
  facet normal 0.000000 1.000000 0.000000
    outer loop
      vertex 4.181139 39.780876 0.000000
      vertex -4.181139 39.780876 25.000000
      vertex 4.181139 39.780876 25.000000
    endloop
  endfacet
  facet normal -0.207912 0.978148 0.000000
    outer loop
      vertex -12.360680 38.042261 0.000000
      vertex -12.360680 38.042261 25.000000
      vertex -4.181139 39.780876 0.000000
    endloop
  endfacet
  facet normal -0.207912 0.978148 0.000000
    outer loop
      vertex -4.181139 39.780876 0.000000
      vertex -12.360680 38.042261 25.000000
      vertex -4.181139 39.780876 25.000000
    endloop
  endfacet
  facet normal -0.406737 0.913545 0.000000
    outer loop
      vertex -20.000000 34.641016 0.000000
      vertex -20.000000 34.641016 25.000000
      vertex -12.360680 38.042261 0.000000
    endloop
  endfacet
  facet normal -0.406737 0.913545 0.000000
    outer loop
      vertex -12.360680 38.042261 0.000000
      vertex -20.000000 34.641016 25.000000
      vertex -12.360680 38.042261 25.000000
    endloop
  endfacet
  facet normal -0.587785 0.809017 0.000000
    outer loop
      vertex -26.765224 29.725793 0.000000
      vertex -26.765224 29.725793 25.000000
      vertex -20.000000 34.641016 0.000000
    endloop
  endfacet
  facet normal -0.587785 0.809017 0.000000
    outer loop
      vertex -20.000000 34.641016 0.000000
      vertex -26.765224 29.725793 25.000000
      vertex -20.000000 34.641016 25.000000
    endloop
  endfacet
  facet normal -0.743145 0.669131 0.000000
    outer loop
      vertex -32.360680 23.511410 0.000000
      vertex -32.360680 23.511410 25.000000
      vertex -26.765224 29.725793 0.000000
    endloop
  endfacet
  facet normal -0.743145 0.669131 0.000000
    outer loop
      vertex -26.765224 29.725793 0.000000
      vertex -32.360680 23.511410 25.000000
      vertex -26.765224 29.725793 25.000000
    endloop
  endfacet
  facet normal -0.866025 0.500000 0.000000
    outer loop
      vertex -36.541818 16.269466 0.000000
      vertex -36.541818 16.269466 25.000000
      vertex -32.360680 23.511410 0.000000
    endloop
  endfacet
  facet normal -0.866025 0.500000 0.000000
    outer loop
      vertex -32.360680 23.511410 0.000000
      vertex -36.541818 16.269466 25.000000
      vertex -32.360680 23.511410 25.000000
    endloop
  endfacet
  facet normal -0.951057 0.309017 0.000000
    outer loop
      vertex -36.954293 15.000000 0.000000
      vertex -36.954293 15.000000 25.000000
      vertex -36.541818 16.269466 0.000000
    endloop
  endfacet
  facet normal -0.951057 0.309017 0.000000
    outer loop
      vertex -36.541818 16.269466 0.000000
      vertex -36.954293 15.000000 25.000000
      vertex -36.541818 16.269466 25.000000
    endloop
  endfacet
endsolid OpenSCAD_Model
