solid OpenSCAD_Model
  facet normal -1.000000 -0.000000 -0.000000
    outer loop
      vertex -50.000000 -40.000000 0.000000
      vertex -50.000000 -40.000000 25.000000
      vertex -50.000000 -10.000000 0.000000
    endloop
  endfacet
  facet normal -1.000000 0.000000 0.000000
    outer loop
      vertex -50.000000 -10.000000 0.000000
      vertex -50.000000 -40.000000 25.000000
      vertex -50.000000 -10.000000 25.000000
    endloop
  endfacet
  facet normal 0.000000 -1.000000 0.000000
    outer loop
      vertex -50.000000 -40.000000 25.000000
      vertex -50.000000 -40.000000 0.000000
      vertex 50.000000 -40.000000 0.000000
    endloop
  endfacet
  facet normal 0.000000 -1.000000 0.000000
    outer loop
      vertex 50.000000 -40.000000 25.000000
      vertex -50.000000 -40.000000 25.000000
      vertex 50.000000 -40.000000 0.000000
    endloop
  endfacet
  facet normal 0.000000 0.000000 -1.000000
    outer loop
      vertex 2.979061 -28.343874 0.000000
      vertex 50.000000 -40.000000 0.000000
      vertex -2.979061 -28.343874 0.000000
    endloop
  endfacet
  facet normal 0.000000 0.000000 -1.000000
    outer loop
      vertex -26.036046 -11.591994 0.000000
      vertex -50.000000 -10.000000 0.000000
      vertex -26.553316 -10.000000 0.000000
    endloop
  endfacet
  facet normal 0.000000 0.000000 -1.000000
    outer loop
      vertex -23.056984 -16.751880 0.000000
      vertex -50.000000 -10.000000 0.000000
      vertex -26.036046 -11.591994 0.000000
    endloop
  endfacet
  facet normal 0.000000 -0.000000 -1.000000
    outer loop
      vertex -50.000000 -40.000000 0.000000
      vertex -50.000000 -10.000000 0.000000
      vertex -19.070222 -21.179628 0.000000
    endloop
  endfacet
  facet normal 0.000000 0.000000 -1.000000
    outer loop
      vertex -50.000000 -40.000000 0.000000
      vertex -19.070222 -21.179628 0.000000
      vertex -14.250000 -24.681724 0.000000
    endloop
  endfacet
  facet normal 0.000000 0.000000 -1.000000
    outer loop
      vertex -50.000000 -40.000000 0.000000
      vertex -14.250000 -24.681724 0.000000
      vertex -8.806984 -27.105111 0.000000
    endloop
  endfacet
  facet normal -0.000000 0.000000 -1.000000
    outer loop
      vertex -50.000000 -40.000000 0.000000
      vertex -8.806984 -27.105111 0.000000
      vertex 50.000000 -40.000000 0.000000
    endloop
  endfacet
  facet normal 0.000000 0.000000 -1.000000
    outer loop
      vertex -8.806984 -27.105111 0.000000
      vertex -2.979061 -28.343874 0.000000
      vertex 50.000000 -40.000000 0.000000
    endloop
  endfacet
  facet normal 0.000000 0.000000 -1.000000
    outer loop
      vertex 8.806984 -27.105111 0.000000
      vertex 50.000000 -40.000000 0.000000
      vertex 2.979061 -28.343874 0.000000
    endloop
  endfacet
  facet normal 0.000000 0.000000 -1.000000
    outer loop
      vertex 50.000000 -40.000000 0.000000
      vertex 14.250000 -24.681724 0.000000
      vertex 19.070222 -21.179628 0.000000
    endloop
  endfacet
  facet normal -0.000000 0.000000 -1.000000
    outer loop
      vertex 19.070222 -21.179628 0.000000
      vertex 23.056984 -16.751880 0.000000
      vertex 50.000000 -40.000000 0.000000
    endloop
  endfacet
  facet normal -0.000000 0.000000 -1.000000
    outer loop
      vertex 23.056984 -16.751880 0.000000
      vertex 26.036046 -11.591994 0.000000
      vertex 50.000000 -40.000000 0.000000
    endloop
  endfacet
  facet normal -0.000000 0.000000 -1.000000
    outer loop
      vertex 26.036046 -11.591994 0.000000
      vertex 26.553316 -10.000000 0.000000
      vertex 50.000000 -40.000000 0.000000
    endloop
  endfacet
  facet normal 0.000000 0.000000 -1.000000
    outer loop
      vertex 50.000000 -40.000000 0.000000
      vertex 26.553316 -10.000000 0.000000
      vertex 50.000000 -10.000000 0.000000
    endloop
  endfacet
  facet normal 0.000000 0.000000 -1.000000
    outer loop
      vertex -19.070222 -21.179628 0.000000
      vertex -50.000000 -10.000000 0.000000
      vertex -23.056984 -16.751880 0.000000
    endloop
  endfacet
  facet normal 0.000000 0.000000 -1.000000
    outer loop
      vertex 14.250000 -24.681724 0.000000
      vertex 50.000000 -40.000000 0.000000
      vertex 8.806984 -27.105111 0.000000
    endloop
  endfacet
  facet normal 0.000000 1.000000 0.000000
    outer loop
      vertex -50.000000 -10.000000 0.000000
      vertex -50.000000 -10.000000 25.000000
      vertex -26.553316 -10.000000 0.000000
    endloop
  endfacet
  facet normal 0.000000 1.000000 0.000000
    outer loop
      vertex -26.553316 -10.000000 0.000000
      vertex -50.000000 -10.000000 25.000000
      vertex -26.553316 -10.000000 25.000000
    endloop
  endfacet
  facet normal 0.000000 -0.000000 1.000000
    outer loop
      vertex 2.979061 -28.343874 25.000000
      vertex -50.000000 -40.000000 25.000000
      vertex 50.000000 -40.000000 25.000000
    endloop
  endfacet
  facet normal 0.000000 0.000000 1.000000
    outer loop
      vertex -14.250000 -24.681724 25.000000
      vertex -19.070222 -21.179628 25.000000
      vertex -50.000000 -10.000000 25.000000
    endloop
  endfacet
  facet normal 0.000000 0.000000 1.000000
    outer loop
      vertex 50.000000 -10.000000 25.000000
      vertex 26.553316 -10.000000 25.000000
      vertex 50.000000 -40.000000 25.000000
    endloop
  endfacet
  facet normal 0.000000 -0.000000 1.000000
    outer loop
      vertex 26.553316 -10.000000 25.000000
      vertex 26.036046 -11.591994 25.000000
      vertex 50.000000 -40.000000 25.000000
    endloop
  endfacet
  facet normal 0.000000 -0.000000 1.000000
    outer loop
      vertex 26.036046 -11.591994 25.000000
      vertex 23.056984 -16.751880 25.000000
      vertex 50.000000 -40.000000 25.000000
    endloop
  endfacet
  facet normal 0.000000 -0.000000 1.000000
    outer loop
      vertex 23.056984 -16.751880 25.000000
      vertex 19.070222 -21.179628 25.000000
      vertex 50.000000 -40.000000 25.000000
    endloop
  endfacet
  facet normal 0.000000 0.000000 1.000000
    outer loop
      vertex -26.036046 -11.591994 25.000000
      vertex -26.553316 -10.000000 25.000000
      vertex -50.000000 -10.000000 25.000000
    endloop
  endfacet
  facet normal 0.000000 -0.000000 1.000000
    outer loop
      vertex 19.070222 -21.179628 25.000000
      vertex 14.250000 -24.681724 25.000000
      vertex 50.000000 -40.000000 25.000000
    endloop
  endfacet
  facet normal 0.000000 -0.000000 1.000000
    outer loop
      vertex 14.250000 -24.681724 25.000000
      vertex 8.806984 -27.105111 25.000000
      vertex 50.000000 -40.000000 25.000000
    endloop
  endfacet
  facet normal 0.000000 -0.000000 1.000000
    outer loop
      vertex -2.979061 -28.343874 25.000000
      vertex -50.000000 -40.000000 25.000000
      vertex 2.979061 -28.343874 25.000000
    endloop
  endfacet
  facet normal 0.000000 -0.000000 1.000000
    outer loop
      vertex -8.806984 -27.105111 25.000000
      vertex -50.000000 -40.000000 25.000000
      vertex -2.979061 -28.343874 25.000000
    endloop
  endfacet
  facet normal 0.000000 -0.000000 1.000000
    outer loop
      vertex -50.000000 -10.000000 25.000000
      vertex -50.000000 -40.000000 25.000000
      vertex -8.806984 -27.105111 25.000000
    endloop
  endfacet
  facet normal 0.000000 0.000000 1.000000
    outer loop
      vertex -50.000000 -10.000000 25.000000
      vertex -8.806984 -27.105111 25.000000
      vertex -14.250000 -24.681724 25.000000
    endloop
  endfacet
  facet normal 0.000000 -0.000000 1.000000
    outer loop
      vertex 8.806984 -27.105111 25.000000
      vertex 2.979061 -28.343874 25.000000
      vertex 50.000000 -40.000000 25.000000
    endloop
  endfacet
  facet normal 0.000000 0.000000 1.000000
    outer loop
      vertex -19.070222 -21.179628 25.000000
      vertex -23.056984 -16.751880 25.000000
      vertex -50.000000 -10.000000 25.000000
    endloop
  endfacet
  facet normal 0.000000 0.000000 1.000000
    outer loop
      vertex -23.056984 -16.751880 25.000000
      vertex -26.036046 -11.591994 25.000000
      vertex -50.000000 -10.000000 25.000000
    endloop
  endfacet
  facet normal 1.000000 0.000000 -0.000000
    outer loop
      vertex 50.000000 -40.000000 25.000000
      vertex 50.000000 -40.000000 0.000000
      vertex 50.000000 -10.000000 0.000000
    endloop
  endfacet
  facet normal 1.000000 0.000000 0.000000
    outer loop
      vertex 50.000000 -10.000000 25.000000
      vertex 50.000000 -40.000000 25.000000
      vertex 50.000000 -10.000000 0.000000
    endloop
  endfacet
  facet normal 0.000000 1.000000 0.000000
    outer loop
      vertex 26.553316 -10.000000 0.000000
      vertex 26.553316 -10.000000 25.000000
      vertex 50.000000 -10.000000 0.000000
    endloop
  endfacet
  facet normal 0.000000 1.000000 0.000000
    outer loop
      vertex 50.000000 -10.000000 0.000000
      vertex 26.553316 -10.000000 25.000000
      vertex 50.000000 -10.000000 25.000000
    endloop
  endfacet
  facet normal -0.951057 0.309017 0.000000
    outer loop
      vertex 26.553316 -10.000000 25.000000
      vertex 26.553316 -10.000000 0.000000
      vertex 26.036046 -11.591994 25.000000
    endloop
  endfacet
  facet normal -0.951057 0.309017 0.000000
    outer loop
      vertex 26.036046 -11.591994 25.000000
      vertex 26.553316 -10.000000 0.000000
      vertex 26.036046 -11.591994 0.000000
    endloop
  endfacet
  facet normal -0.866025 0.500000 0.000000
    outer loop
      vertex 26.036046 -11.591994 25.000000
      vertex 26.036046 -11.591994 0.000000
      vertex 23.056984 -16.751880 25.000000
    endloop
  endfacet
  facet normal -0.866025 0.500000 0.000000
    outer loop
      vertex 23.056984 -16.751880 25.000000
      vertex 26.036046 -11.591994 0.000000
      vertex 23.056984 -16.751880 0.000000
    endloop
  endfacet
  facet normal -0.743145 0.669131 0.000000
    outer loop
      vertex 23.056984 -16.751880 25.000000
      vertex 23.056984 -16.751880 0.000000
      vertex 19.070222 -21.179628 25.000000
    endloop
  endfacet
  facet normal -0.743145 0.669131 0.000000
    outer loop
      vertex 19.070222 -21.179628 25.000000
      vertex 23.056984 -16.751880 0.000000
      vertex 19.070222 -21.179628 0.000000
    endloop
  endfacet
  facet normal -0.587785 0.809017 0.000000
    outer loop
      vertex 19.070222 -21.179628 25.000000
      vertex 19.070222 -21.179628 0.000000
      vertex 14.250000 -24.681724 25.000000
    endloop
  endfacet
  facet normal -0.587785 0.809017 0.000000
    outer loop
      vertex 14.250000 -24.681724 25.000000
      vertex 19.070222 -21.179628 0.000000
      vertex 14.250000 -24.681724 0.000000
    endloop
  endfacet
  facet normal -0.406737 0.913545 0.000000
    outer loop
      vertex 14.250000 -24.681724 25.000000
      vertex 14.250000 -24.681724 0.000000
      vertex 8.806984 -27.105111 25.000000
    endloop
  endfacet
  facet normal -0.406737 0.913545 0.000000
    outer loop
      vertex 8.806984 -27.105111 25.000000
      vertex 14.250000 -24.681724 0.000000
      vertex 8.806984 -27.105111 0.000000
    endloop
  endfacet
  facet normal -0.207912 0.978148 0.000000
    outer loop
      vertex 8.806984 -27.105111 25.000000
      vertex 8.806984 -27.105111 0.000000
      vertex 2.979061 -28.343874 25.000000
    endloop
  endfacet
  facet normal -0.207912 0.978148 0.000000
    outer loop
      vertex 2.979061 -28.343874 25.000000
      vertex 8.806984 -27.105111 0.000000
      vertex 2.979061 -28.343874 0.000000
    endloop
  endfacet
  facet normal 0.000000 1.000000 0.000000
    outer loop
      vertex 2.979061 -28.343874 25.000000
      vertex 2.979061 -28.343874 0.000000
      vertex -2.979061 -28.343874 25.000000
    endloop
  endfacet
  facet normal 0.000000 1.000000 -0.000000
    outer loop
      vertex -2.979061 -28.343874 25.000000
      vertex 2.979061 -28.343874 0.000000
      vertex -2.979061 -28.343874 0.000000
    endloop
  endfacet
  facet normal 0.207912 0.978148 -0.000000
    outer loop
      vertex -2.979061 -28.343874 25.000000
      vertex -2.979061 -28.343874 0.000000
      vertex -8.806984 -27.105111 25.000000
    endloop
  endfacet
  facet normal 0.207912 0.978148 -0.000000
    outer loop
      vertex -8.806984 -27.105111 25.000000
      vertex -2.979061 -28.343874 0.000000
      vertex -8.806984 -27.105111 0.000000
    endloop
  endfacet
  facet normal 0.406737 0.913545 -0.000000
    outer loop
      vertex -8.806984 -27.105111 25.000000
      vertex -8.806984 -27.105111 0.000000
      vertex -14.250000 -24.681724 25.000000
    endloop
  endfacet
  facet normal 0.406737 0.913545 -0.000000
    outer loop
      vertex -14.250000 -24.681724 25.000000
      vertex -8.806984 -27.105111 0.000000
      vertex -14.250000 -24.681724 0.000000
    endloop
  endfacet
  facet normal 0.587785 0.809017 -0.000000
    outer loop
      vertex -14.250000 -24.681724 25.000000
      vertex -14.250000 -24.681724 0.000000
      vertex -19.070222 -21.179628 25.000000
    endloop
  endfacet
  facet normal 0.587785 0.809017 -0.000000
    outer loop
      vertex -19.070222 -21.179628 25.000000
      vertex -14.250000 -24.681724 0.000000
      vertex -19.070222 -21.179628 0.000000
    endloop
  endfacet
  facet normal 0.743145 0.669131 0.000000
    outer loop
      vertex -23.056984 -16.751880 25.000000
      vertex -19.070222 -21.179628 25.000000
      vertex -19.070222 -21.179628 0.000000
    endloop
  endfacet
  facet normal 0.743145 0.669131 0.000000
    outer loop
      vertex -23.056984 -16.751880 0.000000
      vertex -23.056984 -16.751880 25.000000
      vertex -19.070222 -21.179628 0.000000
    endloop
  endfacet
  facet normal 0.866025 0.500000 0.000000
    outer loop
      vertex -26.036046 -11.591994 25.000000
      vertex -23.056984 -16.751880 25.000000
      vertex -23.056984 -16.751880 0.000000
    endloop
  endfacet
  facet normal 0.866025 0.500000 0.000000
    outer loop
      vertex -26.036046 -11.591994 0.000000
      vertex -26.036046 -11.591994 25.000000
      vertex -23.056984 -16.751880 0.000000
    endloop
  endfacet
  facet normal 0.951057 0.309017 0.000000
    outer loop
      vertex -26.553316 -10.000000 25.000000
      vertex -26.036046 -11.591994 25.000000
      vertex -26.036046 -11.591994 0.000000
    endloop
  endfacet
  facet normal 0.951057 0.309017 0.000000
    outer loop
      vertex -26.553316 -10.000000 0.000000
      vertex -26.553316 -10.000000 25.000000
      vertex -26.036046 -11.591994 0.000000
    endloop
  endfacet
endsolid OpenSCAD_Model
