solid OpenSCAD_Model
  facet normal -0.000000 0.000000 -1.000000
    outer loop
      vertex -27.500000 0.000000 -8.500000
      vertex -26.899059 5.717571 -8.500000
      vertex -26.899059 -5.717571 -8.500000
    endloop
  endfacet
  facet normal 0.000000 -0.000000 -1.000000
    outer loop
      vertex -26.899059 -5.717571 -8.500000
      vertex -26.899059 5.717571 -8.500000
      vertex -25.122500 11.185258 -8.500000
    endloop
  endfacet
  facet normal 0.000000 0.000000 -1.000000
    outer loop
      vertex -26.899059 -5.717571 -8.500000
      vertex -25.122500 11.185258 -8.500000
      vertex -22.247967 16.164094 -8.500000
    endloop
  endfacet
  facet normal 0.000000 0.000000 -1.000000
    outer loop
      vertex -26.899059 -5.717571 -8.500000
      vertex -22.247967 16.164094 -8.500000
      vertex -18.401092 20.436483 -8.500000
    endloop
  endfacet
  facet normal 0.000000 0.000000 -1.000000
    outer loop
      vertex -26.899059 -5.717571 -8.500000
      vertex -18.401092 20.436483 -8.500000
      vertex -13.750000 23.815699 -8.500000
    endloop
  endfacet
  facet normal 0.000000 0.000000 -1.000000
    outer loop
      vertex -14.386308 15.977614 -8.500000
      vertex -13.750000 23.815699 -8.500000
      vertex -8.497967 26.154054 -8.500000
    endloop
  endfacet
  facet normal 0.000000 0.000000 -1.000000
    outer loop
      vertex -10.750000 18.619546 -8.500000
      vertex -8.497967 26.154054 -8.500000
      vertex -2.874533 27.349352 -8.500000
    endloop
  endfacet
  facet normal 0.000000 0.000000 -1.000000
    outer loop
      vertex -6.643865 20.447715 -8.500000
      vertex -2.874533 27.349352 -8.500000
      vertex 2.874533 27.349352 -8.500000
    endloop
  endfacet
  facet normal 0.000000 0.000000 -1.000000
    outer loop
      vertex 2.247362 21.382221 -8.500000
      vertex 2.874533 27.349352 -8.500000
      vertex 8.497967 26.154054 -8.500000
    endloop
  endfacet
  facet normal 0.000000 0.000000 -1.000000
    outer loop
      vertex 6.643865 20.447715 -8.500000
      vertex 8.497967 26.154054 -8.500000
      vertex 13.750000 23.815699 -8.500000
    endloop
  endfacet
  facet normal 0.000000 0.000000 -1.000000
    outer loop
      vertex 10.750000 18.619546 -8.500000
      vertex 13.750000 23.815699 -8.500000
      vertex 18.401092 20.436483 -8.500000
    endloop
  endfacet
  facet normal 0.000000 0.000000 -1.000000
    outer loop
      vertex 14.386308 15.977614 -8.500000
      vertex 18.401092 20.436483 -8.500000
      vertex 22.247967 16.164094 -8.500000
    endloop
  endfacet
  facet normal -0.000000 0.000000 -1.000000
    outer loop
      vertex 17.393865 12.637383 -8.500000
      vertex 22.247967 16.164094 -8.500000
      vertex 25.122500 11.185258 -8.500000
    endloop
  endfacet
  facet normal 0.000000 0.000000 -1.000000
    outer loop
      vertex 21.030173 4.470101 -8.500000
      vertex 25.122500 11.185258 -8.500000
      vertex 26.899059 5.717571 -8.500000
    endloop
  endfacet
  facet normal -0.000000 0.000000 -1.000000
    outer loop
      vertex 21.500000 0.000000 -8.500000
      vertex 26.899059 5.717571 -8.500000
      vertex 27.500000 0.000000 -8.500000
    endloop
  endfacet
  facet normal -0.000000 0.000000 -1.000000
    outer loop
      vertex 21.030173 -4.470101 -8.500000
      vertex 27.500000 0.000000 -8.500000
      vertex 26.899059 -5.717571 -8.500000
    endloop
  endfacet
  facet normal -0.000000 0.000000 -1.000000
    outer loop
      vertex 19.641227 -8.744838 -8.500000
      vertex 26.899059 -5.717571 -8.500000
      vertex 25.122500 -11.185258 -8.500000
    endloop
  endfacet
  facet normal -0.000000 0.000000 -1.000000
    outer loop
      vertex 17.393865 -12.637383 -8.500000
      vertex 25.122500 -11.185258 -8.500000
      vertex 22.247967 -16.164094 -8.500000
    endloop
  endfacet
  facet normal 0.000000 0.000000 -1.000000
    outer loop
      vertex 14.386308 -15.977614 -8.500000
      vertex 22.247967 -16.164094 -8.500000
      vertex 18.401092 -20.436483 -8.500000
    endloop
  endfacet
  facet normal -0.000000 0.000000 -1.000000
    outer loop
      vertex 6.643865 -20.447715 -8.500000
      vertex 18.401092 -20.436483 -8.500000
      vertex 13.750000 -23.815699 -8.500000
    endloop
  endfacet
  facet normal 0.000000 0.000000 -1.000000
    outer loop
      vertex 2.247362 -21.382221 -8.500000
      vertex 13.750000 -23.815699 -8.500000
      vertex 8.497967 -26.154054 -8.500000
    endloop
  endfacet
  facet normal 0.000000 0.000000 -1.000000
    outer loop
      vertex -2.247362 -21.382221 -8.500000
      vertex 8.497967 -26.154054 -8.500000
      vertex 2.874533 -27.349352 -8.500000
    endloop
  endfacet
  facet normal 0.000000 0.000000 -1.000000
    outer loop
      vertex -10.750000 -18.619546 -8.500000
      vertex 2.874533 -27.349352 -8.500000
      vertex -2.874533 -27.349352 -8.500000
    endloop
  endfacet
  facet normal 0.000000 0.000000 -1.000000
    outer loop
      vertex -26.899059 -5.717571 -8.500000
      vertex -2.874533 -27.349352 -8.500000
      vertex -8.497967 -26.154054 -8.500000
    endloop
  endfacet
  facet normal 0.000000 0.000000 -1.000000
    outer loop
      vertex -26.899059 -5.717571 -8.500000
      vertex -8.497967 -26.154054 -8.500000
      vertex -13.750000 -23.815699 -8.500000
    endloop
  endfacet
  facet normal 0.000000 0.000000 -1.000000
    outer loop
      vertex -26.899059 -5.717571 -8.500000
      vertex -13.750000 -23.815699 -8.500000
      vertex -18.401092 -20.436483 -8.500000
    endloop
  endfacet
  facet normal 0.000000 0.000000 -1.000000
    outer loop
      vertex -26.899059 -5.717571 -8.500000
      vertex -18.401092 -20.436483 -8.500000
      vertex -22.247967 -16.164094 -8.500000
    endloop
  endfacet
  facet normal 0.000000 0.000000 -1.000000
    outer loop
      vertex -26.899059 -5.717571 -8.500000
      vertex -22.247967 -16.164094 -8.500000
      vertex -25.122500 -11.185258 -8.500000
    endloop
  endfacet
  facet normal 0.000000 0.000000 -1.000000
    outer loop
      vertex -21.030173 -4.470101 -8.500000
      vertex -26.899059 -5.717571 -8.500000
      vertex -21.500000 0.000000 -8.500000
    endloop
  endfacet
  facet normal 0.000000 0.000000 -1.000000
    outer loop
      vertex -19.641227 -8.744838 -8.500000
      vertex -26.899059 -5.717571 -8.500000
      vertex -21.030173 -4.470101 -8.500000
    endloop
  endfacet
  facet normal 0.000000 0.000000 -1.000000
    outer loop
      vertex -17.393865 -12.637383 -8.500000
      vertex -26.899059 -5.717571 -8.500000
      vertex -19.641227 -8.744838 -8.500000
    endloop
  endfacet
  facet normal 0.000000 0.000000 -1.000000
    outer loop
      vertex -10.750000 -18.619546 -8.500000
      vertex -2.874533 -27.349352 -8.500000
      vertex -14.386308 -15.977614 -8.500000
    endloop
  endfacet
  facet normal 0.000000 0.000000 -1.000000
    outer loop
      vertex -26.899059 -5.717571 -8.500000
      vertex -17.393865 -12.637383 -8.500000
      vertex -14.386308 -15.977614 -8.500000
    endloop
  endfacet
  facet normal 0.000000 0.000000 -1.000000
    outer loop
      vertex -26.899059 -5.717571 -8.500000
      vertex -14.386308 -15.977614 -8.500000
      vertex -2.874533 -27.349352 -8.500000
    endloop
  endfacet
  facet normal 0.000000 0.000000 -1.000000
    outer loop
      vertex -6.643865 -20.447715 -8.500000
      vertex 2.874533 -27.349352 -8.500000
      vertex -10.750000 -18.619546 -8.500000
    endloop
  endfacet
  facet normal 0.000000 0.000000 -1.000000
    outer loop
      vertex -2.247362 -21.382221 -8.500000
      vertex 2.874533 -27.349352 -8.500000
      vertex -6.643865 -20.447715 -8.500000
    endloop
  endfacet
  facet normal 0.000000 0.000000 -1.000000
    outer loop
      vertex 10.750000 -18.619546 -8.500000
      vertex 18.401092 -20.436483 -8.500000
      vertex 6.643865 -20.447715 -8.500000
    endloop
  endfacet
  facet normal 0.000000 0.000000 -1.000000
    outer loop
      vertex 14.386308 -15.977614 -8.500000
      vertex 18.401092 -20.436483 -8.500000
      vertex 10.750000 -18.619546 -8.500000
    endloop
  endfacet
  facet normal 0.000000 0.000000 -1.000000
    outer loop
      vertex 6.643865 -20.447715 -8.500000
      vertex 13.750000 -23.815699 -8.500000
      vertex 2.247362 -21.382221 -8.500000
    endloop
  endfacet
  facet normal 0.000000 0.000000 -1.000000
    outer loop
      vertex 2.247362 -21.382221 -8.500000
      vertex 8.497967 -26.154054 -8.500000
      vertex -2.247362 -21.382221 -8.500000
    endloop
  endfacet
  facet normal -0.000000 0.000000 -1.000000
    outer loop
      vertex 21.030173 4.470101 -8.500000
      vertex 26.899059 5.717571 -8.500000
      vertex 21.500000 0.000000 -8.500000
    endloop
  endfacet
  facet normal -0.000000 0.000000 -1.000000
    outer loop
      vertex 19.641227 8.744838 -8.500000
      vertex 25.122500 11.185258 -8.500000
      vertex 21.030173 4.470101 -8.500000
    endloop
  endfacet
  facet normal 0.000000 0.000000 -1.000000
    outer loop
      vertex 21.500000 0.000000 -8.500000
      vertex 27.500000 0.000000 -8.500000
      vertex 21.030173 -4.470101 -8.500000
    endloop
  endfacet
  facet normal 0.000000 0.000000 -1.000000
    outer loop
      vertex 21.030173 -4.470101 -8.500000
      vertex 26.899059 -5.717571 -8.500000
      vertex 19.641227 -8.744838 -8.500000
    endloop
  endfacet
  facet normal 0.000000 0.000000 -1.000000
    outer loop
      vertex 19.641227 -8.744838 -8.500000
      vertex 25.122500 -11.185258 -8.500000
      vertex 17.393865 -12.637383 -8.500000
    endloop
  endfacet
  facet normal 0.000000 0.000000 -1.000000
    outer loop
      vertex 17.393865 -12.637383 -8.500000
      vertex 22.247967 -16.164094 -8.500000
      vertex 14.386308 -15.977614 -8.500000
    endloop
  endfacet
  facet normal -0.000000 0.000000 -1.000000
    outer loop
      vertex -2.247362 21.382221 -8.500000
      vertex 2.874533 27.349352 -8.500000
      vertex 2.247362 21.382221 -8.500000
    endloop
  endfacet
  facet normal 0.000000 0.000000 -1.000000
    outer loop
      vertex -6.643865 20.447715 -8.500000
      vertex 2.874533 27.349352 -8.500000
      vertex -2.247362 21.382221 -8.500000
    endloop
  endfacet
  facet normal -0.000000 0.000000 -1.000000
    outer loop
      vertex 2.247362 21.382221 -8.500000
      vertex 8.497967 26.154054 -8.500000
      vertex 6.643865 20.447715 -8.500000
    endloop
  endfacet
  facet normal -0.000000 0.000000 -1.000000
    outer loop
      vertex 6.643865 20.447715 -8.500000
      vertex 13.750000 23.815699 -8.500000
      vertex 10.750000 18.619546 -8.500000
    endloop
  endfacet
  facet normal 0.000000 0.000000 -1.000000
    outer loop
      vertex -17.393865 12.637383 -8.500000
      vertex -13.750000 23.815699 -8.500000
      vertex -14.386308 15.977614 -8.500000
    endloop
  endfacet
  facet normal 0.000000 0.000000 -1.000000
    outer loop
      vertex -19.641227 8.744838 -8.500000
      vertex -13.750000 23.815699 -8.500000
      vertex -17.393865 12.637383 -8.500000
    endloop
  endfacet
  facet normal 0.000000 0.000000 -1.000000
    outer loop
      vertex -26.899059 -5.717571 -8.500000
      vertex -13.750000 23.815699 -8.500000
      vertex -19.641227 8.744838 -8.500000
    endloop
  endfacet
  facet normal -0.000000 0.000000 -1.000000
    outer loop
      vertex 10.750000 18.619546 -8.500000
      vertex 18.401092 20.436483 -8.500000
      vertex 14.386308 15.977614 -8.500000
    endloop
  endfacet
  facet normal 0.000000 -0.000000 -1.000000
    outer loop
      vertex -21.500000 0.000000 -8.500000
      vertex -26.899059 -5.717571 -8.500000
      vertex -21.030173 4.470101 -8.500000
    endloop
  endfacet
  facet normal 0.000000 -0.000000 -1.000000
    outer loop
      vertex -21.030173 4.470101 -8.500000
      vertex -26.899059 -5.717571 -8.500000
      vertex -19.641227 8.744838 -8.500000
    endloop
  endfacet
  facet normal 0.000000 0.000000 -1.000000
    outer loop
      vertex -14.386308 15.977614 -8.500000
      vertex -8.497967 26.154054 -8.500000
      vertex -10.750000 18.619546 -8.500000
    endloop
  endfacet
  facet normal 0.000000 0.000000 -1.000000
    outer loop
      vertex -10.750000 18.619546 -8.500000
      vertex -2.874533 27.349352 -8.500000
      vertex -6.643865 20.447715 -8.500000
    endloop
  endfacet
  facet normal -0.000000 0.000000 -1.000000
    outer loop
      vertex 14.386308 15.977614 -8.500000
      vertex 22.247967 16.164094 -8.500000
      vertex 17.393865 12.637383 -8.500000
    endloop
  endfacet
  facet normal 0.000000 0.000000 -1.000000
    outer loop
      vertex 17.393865 12.637383 -8.500000
      vertex 25.122500 11.185258 -8.500000
      vertex 19.641227 8.744838 -8.500000
    endloop
  endfacet
  facet normal -0.994522 0.104528 0.000000
    outer loop
      vertex -27.500000 0.000000 -8.500000
      vertex -27.500000 0.000000 -7.500000
      vertex -26.899059 5.717571 -8.500000
    endloop
  endfacet
  facet normal -0.994522 0.104528 0.000000
    outer loop
      vertex -26.899059 5.717571 -8.500000
      vertex -27.500000 0.000000 -7.500000
      vertex -26.899059 5.717571 -7.500000
    endloop
  endfacet
  facet normal -0.994522 -0.104528 -0.000000
    outer loop
      vertex -27.500000 0.000000 -8.500000
      vertex -26.899059 -5.717571 -8.500000
      vertex -27.500000 0.000000 -7.500000
    endloop
  endfacet
  facet normal -0.994522 -0.104528 0.000000
    outer loop
      vertex -27.500000 0.000000 -7.500000
      vertex -26.899059 -5.717571 -8.500000
      vertex -26.899059 -5.717571 -7.500000
    endloop
  endfacet
  facet normal -0.951057 -0.309017 -0.000000
    outer loop
      vertex -26.899059 -5.717571 -8.500000
      vertex -25.122500 -11.185258 -8.500000
      vertex -26.899059 -5.717571 -7.500000
    endloop
  endfacet
  facet normal -0.951057 -0.309017 0.000000
    outer loop
      vertex -26.899059 -5.717571 -7.500000
      vertex -25.122500 -11.185258 -8.500000
      vertex -25.122500 -11.185258 -7.500000
    endloop
  endfacet
  facet normal -0.866025 -0.500000 -0.000000
    outer loop
      vertex -25.122500 -11.185258 -8.500000
      vertex -22.247967 -16.164094 -8.500000
      vertex -25.122500 -11.185258 -7.500000
    endloop
  endfacet
  facet normal -0.866025 -0.500000 0.000000
    outer loop
      vertex -25.122500 -11.185258 -7.500000
      vertex -22.247967 -16.164094 -8.500000
      vertex -22.247967 -16.164094 -7.500000
    endloop
  endfacet
  facet normal -0.743145 -0.669130 -0.000000
    outer loop
      vertex -22.247967 -16.164094 -8.500000
      vertex -18.401092 -20.436483 -8.500000
      vertex -22.247967 -16.164094 -7.500000
    endloop
  endfacet
  facet normal -0.743145 -0.669130 0.000000
    outer loop
      vertex -22.247967 -16.164094 -7.500000
      vertex -18.401092 -20.436483 -8.500000
      vertex -18.401092 -20.436483 -7.500000
    endloop
  endfacet
  facet normal -0.587785 -0.809017 0.000000
    outer loop
      vertex -18.401092 -20.436483 -7.500000
      vertex -18.401092 -20.436483 -8.500000
      vertex -13.750000 -23.815699 -8.500000
    endloop
  endfacet
  facet normal -0.587785 -0.809017 0.000000
    outer loop
      vertex -13.750000 -23.815699 -7.500000
      vertex -18.401092 -20.436483 -7.500000
      vertex -13.750000 -23.815699 -8.500000
    endloop
  endfacet
  facet normal -0.406737 -0.913546 0.000000
    outer loop
      vertex -13.750000 -23.815699 -7.500000
      vertex -13.750000 -23.815699 -8.500000
      vertex -8.497967 -26.154054 -8.500000
    endloop
  endfacet
  facet normal -0.406737 -0.913546 0.000000
    outer loop
      vertex -8.497967 -26.154054 -7.500000
      vertex -13.750000 -23.815699 -7.500000
      vertex -8.497967 -26.154054 -8.500000
    endloop
  endfacet
  facet normal -0.207912 -0.978148 0.000000
    outer loop
      vertex -8.497967 -26.154054 -7.500000
      vertex -8.497967 -26.154054 -8.500000
      vertex -2.874533 -27.349352 -8.500000
    endloop
  endfacet
  facet normal -0.207912 -0.978148 0.000000
    outer loop
      vertex -2.874533 -27.349352 -7.500000
      vertex -8.497967 -26.154054 -7.500000
      vertex -2.874533 -27.349352 -8.500000
    endloop
  endfacet
  facet normal 0.000000 -1.000000 0.000000
    outer loop
      vertex -2.874533 -27.349352 -7.500000
      vertex -2.874533 -27.349352 -8.500000
      vertex 2.874533 -27.349352 -8.500000
    endloop
  endfacet
  facet normal 0.000000 -1.000000 0.000000
    outer loop
      vertex 2.874533 -27.349352 -7.500000
      vertex -2.874533 -27.349352 -7.500000
      vertex 2.874533 -27.349352 -8.500000
    endloop
  endfacet
  facet normal 0.207912 -0.978148 0.000000
    outer loop
      vertex 2.874533 -27.349352 -7.500000
      vertex 2.874533 -27.349352 -8.500000
      vertex 8.497967 -26.154054 -8.500000
    endloop
  endfacet
  facet normal 0.207912 -0.978148 0.000000
    outer loop
      vertex 8.497967 -26.154054 -7.500000
      vertex 2.874533 -27.349352 -7.500000
      vertex 8.497967 -26.154054 -8.500000
    endloop
  endfacet
  facet normal 0.406737 -0.913546 0.000000
    outer loop
      vertex 8.497967 -26.154054 -7.500000
      vertex 8.497967 -26.154054 -8.500000
      vertex 13.750000 -23.815699 -8.500000
    endloop
  endfacet
  facet normal 0.406737 -0.913546 0.000000
    outer loop
      vertex 13.750000 -23.815699 -7.500000
      vertex 8.497967 -26.154054 -7.500000
      vertex 13.750000 -23.815699 -8.500000
    endloop
  endfacet
  facet normal 0.587785 -0.809017 0.000000
    outer loop
      vertex 13.750000 -23.815699 -7.500000
      vertex 13.750000 -23.815699 -8.500000
      vertex 18.401092 -20.436483 -8.500000
    endloop
  endfacet
  facet normal 0.587785 -0.809017 0.000000
    outer loop
      vertex 18.401092 -20.436483 -7.500000
      vertex 13.750000 -23.815699 -7.500000
      vertex 18.401092 -20.436483 -8.500000
    endloop
  endfacet
  facet normal 0.743145 -0.669130 0.000000
    outer loop
      vertex 18.401092 -20.436483 -7.500000
      vertex 18.401092 -20.436483 -8.500000
      vertex 22.247967 -16.164094 -8.500000
    endloop
  endfacet
  facet normal 0.743145 -0.669130 0.000000
    outer loop
      vertex 22.247967 -16.164094 -7.500000
      vertex 18.401092 -20.436483 -7.500000
      vertex 22.247967 -16.164094 -8.500000
    endloop
  endfacet
  facet normal 0.866025 -0.500000 0.000000
    outer loop
      vertex 22.247967 -16.164094 -7.500000
      vertex 22.247967 -16.164094 -8.500000
      vertex 25.122500 -11.185258 -8.500000
    endloop
  endfacet
  facet normal 0.866025 -0.500000 0.000000
    outer loop
      vertex 25.122500 -11.185258 -7.500000
      vertex 22.247967 -16.164094 -7.500000
      vertex 25.122500 -11.185258 -8.500000
    endloop
  endfacet
  facet normal 0.951057 -0.309017 0.000000
    outer loop
      vertex 25.122500 -11.185258 -7.500000
      vertex 25.122500 -11.185258 -8.500000
      vertex 26.899059 -5.717571 -8.500000
    endloop
  endfacet
  facet normal 0.951057 -0.309017 0.000000
    outer loop
      vertex 26.899059 -5.717571 -7.500000
      vertex 25.122500 -11.185258 -7.500000
      vertex 26.899059 -5.717571 -8.500000
    endloop
  endfacet
  facet normal 0.994522 -0.104528 0.000000
    outer loop
      vertex 26.899059 -5.717571 -7.500000
      vertex 26.899059 -5.717571 -8.500000
      vertex 27.500000 0.000000 -8.500000
    endloop
  endfacet
  facet normal 0.994522 -0.104528 0.000000
    outer loop
      vertex 27.500000 0.000000 -7.500000
      vertex 26.899059 -5.717571 -7.500000
      vertex 27.500000 0.000000 -8.500000
    endloop
  endfacet
  facet normal 0.994522 0.104528 0.000000
    outer loop
      vertex 27.500000 0.000000 -8.500000
      vertex 26.899059 5.717571 -8.500000
      vertex 26.899059 5.717571 -7.500000
    endloop
  endfacet
  facet normal 0.994522 0.104528 -0.000000
    outer loop
      vertex 27.500000 0.000000 -7.500000
      vertex 27.500000 0.000000 -8.500000
      vertex 26.899059 5.717571 -7.500000
    endloop
  endfacet
  facet normal 0.951057 0.309017 0.000000
    outer loop
      vertex 26.899059 5.717571 -8.500000
      vertex 25.122500 11.185258 -8.500000
      vertex 25.122500 11.185258 -7.500000
    endloop
  endfacet
  facet normal 0.951057 0.309017 -0.000000
    outer loop
      vertex 26.899059 5.717571 -7.500000
      vertex 26.899059 5.717571 -8.500000
      vertex 25.122500 11.185258 -7.500000
    endloop
  endfacet
  facet normal 0.866025 0.500000 0.000000
    outer loop
      vertex 25.122500 11.185258 -8.500000
      vertex 22.247967 16.164094 -8.500000
      vertex 22.247967 16.164094 -7.500000
    endloop
  endfacet
  facet normal 0.866025 0.500000 -0.000000
    outer loop
      vertex 25.122500 11.185258 -7.500000
      vertex 25.122500 11.185258 -8.500000
      vertex 22.247967 16.164094 -7.500000
    endloop
  endfacet
  facet normal 0.743145 0.669130 0.000000
    outer loop
      vertex 22.247967 16.164094 -8.500000
      vertex 18.401092 20.436483 -8.500000
      vertex 18.401092 20.436483 -7.500000
    endloop
  endfacet
  facet normal 0.743145 0.669130 -0.000000
    outer loop
      vertex 22.247967 16.164094 -7.500000
      vertex 22.247967 16.164094 -8.500000
      vertex 18.401092 20.436483 -7.500000
    endloop
  endfacet
  facet normal 0.587785 0.809017 0.000000
    outer loop
      vertex 13.750000 23.815699 -8.500000
      vertex 13.750000 23.815699 -7.500000
      vertex 18.401092 20.436483 -8.500000
    endloop
  endfacet
  facet normal 0.587785 0.809017 0.000000
    outer loop
      vertex 18.401092 20.436483 -8.500000
      vertex 13.750000 23.815699 -7.500000
      vertex 18.401092 20.436483 -7.500000
    endloop
  endfacet
  facet normal 0.406737 0.913546 0.000000
    outer loop
      vertex 8.497967 26.154054 -8.500000
      vertex 8.497967 26.154054 -7.500000
      vertex 13.750000 23.815699 -8.500000
    endloop
  endfacet
  facet normal 0.406737 0.913546 0.000000
    outer loop
      vertex 13.750000 23.815699 -8.500000
      vertex 8.497967 26.154054 -7.500000
      vertex 13.750000 23.815699 -7.500000
    endloop
  endfacet
  facet normal 0.207912 0.978148 0.000000
    outer loop
      vertex 2.874533 27.349352 -8.500000
      vertex 2.874533 27.349352 -7.500000
      vertex 8.497967 26.154054 -8.500000
    endloop
  endfacet
  facet normal 0.207912 0.978148 0.000000
    outer loop
      vertex 8.497967 26.154054 -8.500000
      vertex 2.874533 27.349352 -7.500000
      vertex 8.497967 26.154054 -7.500000
    endloop
  endfacet
  facet normal 0.000000 1.000000 0.000000
    outer loop
      vertex -2.874533 27.349352 -8.500000
      vertex -2.874533 27.349352 -7.500000
      vertex 2.874533 27.349352 -8.500000
    endloop
  endfacet
  facet normal 0.000000 1.000000 0.000000
    outer loop
      vertex 2.874533 27.349352 -8.500000
      vertex -2.874533 27.349352 -7.500000
      vertex 2.874533 27.349352 -7.500000
    endloop
  endfacet
  facet normal -0.207912 0.978148 0.000000
    outer loop
      vertex -8.497967 26.154054 -8.500000
      vertex -8.497967 26.154054 -7.500000
      vertex -2.874533 27.349352 -8.500000
    endloop
  endfacet
  facet normal -0.207912 0.978148 0.000000
    outer loop
      vertex -2.874533 27.349352 -8.500000
      vertex -8.497967 26.154054 -7.500000
      vertex -2.874533 27.349352 -7.500000
    endloop
  endfacet
  facet normal -0.406737 0.913546 0.000000
    outer loop
      vertex -13.750000 23.815699 -8.500000
      vertex -13.750000 23.815699 -7.500000
      vertex -8.497967 26.154054 -8.500000
    endloop
  endfacet
  facet normal -0.406737 0.913546 0.000000
    outer loop
      vertex -8.497967 26.154054 -8.500000
      vertex -13.750000 23.815699 -7.500000
      vertex -8.497967 26.154054 -7.500000
    endloop
  endfacet
  facet normal -0.587785 0.809017 0.000000
    outer loop
      vertex -18.401092 20.436483 -8.500000
      vertex -18.401092 20.436483 -7.500000
      vertex -13.750000 23.815699 -8.500000
    endloop
  endfacet
  facet normal -0.587785 0.809017 0.000000
    outer loop
      vertex -13.750000 23.815699 -8.500000
      vertex -18.401092 20.436483 -7.500000
      vertex -13.750000 23.815699 -7.500000
    endloop
  endfacet
  facet normal -0.743145 0.669130 0.000000
    outer loop
      vertex -22.247967 16.164094 -8.500000
      vertex -22.247967 16.164094 -7.500000
      vertex -18.401092 20.436483 -8.500000
    endloop
  endfacet
  facet normal -0.743145 0.669130 0.000000
    outer loop
      vertex -18.401092 20.436483 -8.500000
      vertex -22.247967 16.164094 -7.500000
      vertex -18.401092 20.436483 -7.500000
    endloop
  endfacet
  facet normal -0.866025 0.500000 0.000000
    outer loop
      vertex -25.122500 11.185258 -8.500000
      vertex -25.122500 11.185258 -7.500000
      vertex -22.247967 16.164094 -8.500000
    endloop
  endfacet
  facet normal -0.866025 0.500000 0.000000
    outer loop
      vertex -22.247967 16.164094 -8.500000
      vertex -25.122500 11.185258 -7.500000
      vertex -22.247967 16.164094 -7.500000
    endloop
  endfacet
  facet normal -0.951057 0.309017 0.000000
    outer loop
      vertex -26.899059 5.717571 -8.500000
      vertex -26.899059 5.717571 -7.500000
      vertex -25.122500 11.185258 -8.500000
    endloop
  endfacet
  facet normal -0.951057 0.309017 0.000000
    outer loop
      vertex -25.122500 11.185258 -8.500000
      vertex -26.899059 5.717571 -7.500000
      vertex -25.122500 11.185258 -7.500000
    endloop
  endfacet
  facet normal 0.994522 -0.104529 0.000000
    outer loop
      vertex -21.030173 4.470101 -8.500000
      vertex -21.030173 4.470101 7.500000
      vertex -21.500000 0.000000 7.500000
    endloop
  endfacet
  facet normal 0.994522 -0.104529 0.000000
    outer loop
      vertex -21.500000 0.000000 -8.500000
      vertex -21.030173 4.470101 -8.500000
      vertex -21.500000 0.000000 7.500000
    endloop
  endfacet
  facet normal 0.994522 0.104529 0.000000
    outer loop
      vertex -21.500000 0.000000 7.500000
      vertex -21.030173 -4.470101 7.500000
      vertex -21.030173 -4.470101 -8.500000
    endloop
  endfacet
  facet normal 0.994522 0.104529 0.000000
    outer loop
      vertex -21.500000 0.000000 -8.500000
      vertex -21.500000 0.000000 7.500000
      vertex -21.030173 -4.470101 -8.500000
    endloop
  endfacet
  facet normal 0.951057 -0.309017 0.000000
    outer loop
      vertex -19.641227 8.744838 -8.500000
      vertex -19.641227 8.744838 7.500000
      vertex -21.030173 4.470101 7.500000
    endloop
  endfacet
  facet normal 0.951057 -0.309017 0.000000
    outer loop
      vertex -21.030173 4.470101 -8.500000
      vertex -19.641227 8.744838 -8.500000
      vertex -21.030173 4.470101 7.500000
    endloop
  endfacet
  facet normal 0.866025 -0.500000 0.000000
    outer loop
      vertex -17.393865 12.637383 -8.500000
      vertex -17.393865 12.637383 7.500000
      vertex -19.641227 8.744838 7.500000
    endloop
  endfacet
  facet normal 0.866025 -0.500000 0.000000
    outer loop
      vertex -19.641227 8.744838 -8.500000
      vertex -17.393865 12.637383 -8.500000
      vertex -19.641227 8.744838 7.500000
    endloop
  endfacet
  facet normal 0.743145 -0.669131 0.000000
    outer loop
      vertex -14.386308 15.977614 -8.500000
      vertex -14.386308 15.977614 7.500000
      vertex -17.393865 12.637383 7.500000
    endloop
  endfacet
  facet normal 0.743145 -0.669131 0.000000
    outer loop
      vertex -17.393865 12.637383 -8.500000
      vertex -14.386308 15.977614 -8.500000
      vertex -17.393865 12.637383 7.500000
    endloop
  endfacet
  facet normal 0.587785 -0.809017 0.000000
    outer loop
      vertex -10.750000 18.619546 -8.500000
      vertex -10.750000 18.619546 7.500000
      vertex -14.386308 15.977614 7.500000
    endloop
  endfacet
  facet normal 0.587785 -0.809017 0.000000
    outer loop
      vertex -14.386308 15.977614 -8.500000
      vertex -10.750000 18.619546 -8.500000
      vertex -14.386308 15.977614 7.500000
    endloop
  endfacet
  facet normal 0.406737 -0.913545 0.000000
    outer loop
      vertex -6.643865 20.447715 -8.500000
      vertex -6.643865 20.447715 7.500000
      vertex -10.750000 18.619546 7.500000
    endloop
  endfacet
  facet normal 0.406737 -0.913545 0.000000
    outer loop
      vertex -10.750000 18.619546 -8.500000
      vertex -6.643865 20.447715 -8.500000
      vertex -10.750000 18.619546 7.500000
    endloop
  endfacet
  facet normal 0.207912 -0.978148 0.000000
    outer loop
      vertex -2.247362 21.382221 -8.500000
      vertex -2.247362 21.382221 7.500000
      vertex -6.643865 20.447715 7.500000
    endloop
  endfacet
  facet normal 0.207912 -0.978148 0.000000
    outer loop
      vertex -6.643865 20.447715 -8.500000
      vertex -2.247362 21.382221 -8.500000
      vertex -6.643865 20.447715 7.500000
    endloop
  endfacet
  facet normal 0.000000 -1.000000 0.000000
    outer loop
      vertex 2.247362 21.382221 -8.500000
      vertex 2.247362 21.382221 7.500000
      vertex -2.247362 21.382221 7.500000
    endloop
  endfacet
  facet normal -0.000000 -1.000000 -0.000000
    outer loop
      vertex -2.247362 21.382221 -8.500000
      vertex 2.247362 21.382221 -8.500000
      vertex -2.247362 21.382221 7.500000
    endloop
  endfacet
  facet normal -0.207912 -0.978148 -0.000000
    outer loop
      vertex 6.643865 20.447715 -8.500000
      vertex 6.643865 20.447715 7.500000
      vertex 2.247362 21.382221 7.500000
    endloop
  endfacet
  facet normal -0.207912 -0.978148 -0.000000
    outer loop
      vertex 2.247362 21.382221 -8.500000
      vertex 6.643865 20.447715 -8.500000
      vertex 2.247362 21.382221 7.500000
    endloop
  endfacet
  facet normal -0.406737 -0.913545 -0.000000
    outer loop
      vertex 10.750000 18.619546 -8.500000
      vertex 10.750000 18.619546 7.500000
      vertex 6.643865 20.447715 7.500000
    endloop
  endfacet
  facet normal -0.406737 -0.913545 -0.000000
    outer loop
      vertex 6.643865 20.447715 -8.500000
      vertex 10.750000 18.619546 -8.500000
      vertex 6.643865 20.447715 7.500000
    endloop
  endfacet
  facet normal -0.587785 -0.809017 -0.000000
    outer loop
      vertex 14.386308 15.977614 -8.500000
      vertex 14.386308 15.977614 7.500000
      vertex 10.750000 18.619546 7.500000
    endloop
  endfacet
  facet normal -0.587785 -0.809017 -0.000000
    outer loop
      vertex 10.750000 18.619546 -8.500000
      vertex 14.386308 15.977614 -8.500000
      vertex 10.750000 18.619546 7.500000
    endloop
  endfacet
  facet normal -0.743145 -0.669131 0.000000
    outer loop
      vertex 17.393865 12.637383 7.500000
      vertex 14.386308 15.977614 7.500000
      vertex 17.393865 12.637383 -8.500000
    endloop
  endfacet
  facet normal -0.743145 -0.669131 0.000000
    outer loop
      vertex 17.393865 12.637383 -8.500000
      vertex 14.386308 15.977614 7.500000
      vertex 14.386308 15.977614 -8.500000
    endloop
  endfacet
  facet normal -0.866025 -0.500000 0.000000
    outer loop
      vertex 19.641227 8.744838 7.500000
      vertex 17.393865 12.637383 7.500000
      vertex 19.641227 8.744838 -8.500000
    endloop
  endfacet
  facet normal -0.866025 -0.500000 0.000000
    outer loop
      vertex 19.641227 8.744838 -8.500000
      vertex 17.393865 12.637383 7.500000
      vertex 17.393865 12.637383 -8.500000
    endloop
  endfacet
  facet normal -0.951057 -0.309017 0.000000
    outer loop
      vertex 21.030173 4.470101 7.500000
      vertex 19.641227 8.744838 7.500000
      vertex 21.030173 4.470101 -8.500000
    endloop
  endfacet
  facet normal -0.951057 -0.309017 0.000000
    outer loop
      vertex 21.030173 4.470101 -8.500000
      vertex 19.641227 8.744838 7.500000
      vertex 19.641227 8.744838 -8.500000
    endloop
  endfacet
  facet normal -0.994522 -0.104529 0.000000
    outer loop
      vertex 21.500000 0.000000 7.500000
      vertex 21.030173 4.470101 7.500000
      vertex 21.500000 0.000000 -8.500000
    endloop
  endfacet
  facet normal -0.994522 -0.104529 0.000000
    outer loop
      vertex 21.500000 0.000000 -8.500000
      vertex 21.030173 4.470101 7.500000
      vertex 21.030173 4.470101 -8.500000
    endloop
  endfacet
  facet normal -0.994522 0.104529 0.000000
    outer loop
      vertex 21.500000 0.000000 7.500000
      vertex 21.500000 0.000000 -8.500000
      vertex 21.030173 -4.470101 7.500000
    endloop
  endfacet
  facet normal -0.994522 0.104529 0.000000
    outer loop
      vertex 21.030173 -4.470101 7.500000
      vertex 21.500000 0.000000 -8.500000
      vertex 21.030173 -4.470101 -8.500000
    endloop
  endfacet
  facet normal -0.951057 0.309017 0.000000
    outer loop
      vertex 21.030173 -4.470101 7.500000
      vertex 21.030173 -4.470101 -8.500000
      vertex 19.641227 -8.744838 7.500000
    endloop
  endfacet
  facet normal -0.951057 0.309017 0.000000
    outer loop
      vertex 19.641227 -8.744838 7.500000
      vertex 21.030173 -4.470101 -8.500000
      vertex 19.641227 -8.744838 -8.500000
    endloop
  endfacet
  facet normal -0.866025 0.500000 0.000000
    outer loop
      vertex 19.641227 -8.744838 7.500000
      vertex 19.641227 -8.744838 -8.500000
      vertex 17.393865 -12.637383 7.500000
    endloop
  endfacet
  facet normal -0.866025 0.500000 0.000000
    outer loop
      vertex 17.393865 -12.637383 7.500000
      vertex 19.641227 -8.744838 -8.500000
      vertex 17.393865 -12.637383 -8.500000
    endloop
  endfacet
  facet normal -0.743145 0.669131 0.000000
    outer loop
      vertex 17.393865 -12.637383 7.500000
      vertex 17.393865 -12.637383 -8.500000
      vertex 14.386308 -15.977614 7.500000
    endloop
  endfacet
  facet normal -0.743145 0.669131 0.000000
    outer loop
      vertex 14.386308 -15.977614 7.500000
      vertex 17.393865 -12.637383 -8.500000
      vertex 14.386308 -15.977614 -8.500000
    endloop
  endfacet
  facet normal -0.587785 0.809017 0.000000
    outer loop
      vertex 14.386308 -15.977614 7.500000
      vertex 14.386308 -15.977614 -8.500000
      vertex 10.750000 -18.619546 7.500000
    endloop
  endfacet
  facet normal -0.587785 0.809017 0.000000
    outer loop
      vertex 10.750000 -18.619546 7.500000
      vertex 14.386308 -15.977614 -8.500000
      vertex 10.750000 -18.619546 -8.500000
    endloop
  endfacet
  facet normal -0.406737 0.913545 0.000000
    outer loop
      vertex 10.750000 -18.619546 7.500000
      vertex 10.750000 -18.619546 -8.500000
      vertex 6.643865 -20.447715 7.500000
    endloop
  endfacet
  facet normal -0.406737 0.913545 0.000000
    outer loop
      vertex 6.643865 -20.447715 7.500000
      vertex 10.750000 -18.619546 -8.500000
      vertex 6.643865 -20.447715 -8.500000
    endloop
  endfacet
  facet normal -0.207912 0.978148 0.000000
    outer loop
      vertex 6.643865 -20.447715 7.500000
      vertex 6.643865 -20.447715 -8.500000
      vertex 2.247362 -21.382221 7.500000
    endloop
  endfacet
  facet normal -0.207912 0.978148 0.000000
    outer loop
      vertex 2.247362 -21.382221 7.500000
      vertex 6.643865 -20.447715 -8.500000
      vertex 2.247362 -21.382221 -8.500000
    endloop
  endfacet
  facet normal 0.000000 1.000000 0.000000
    outer loop
      vertex 2.247362 -21.382221 7.500000
      vertex 2.247362 -21.382221 -8.500000
      vertex -2.247362 -21.382221 7.500000
    endloop
  endfacet
  facet normal 0.000000 1.000000 -0.000000
    outer loop
      vertex -2.247362 -21.382221 7.500000
      vertex 2.247362 -21.382221 -8.500000
      vertex -2.247362 -21.382221 -8.500000
    endloop
  endfacet
  facet normal 0.207912 0.978148 -0.000000
    outer loop
      vertex -2.247362 -21.382221 7.500000
      vertex -2.247362 -21.382221 -8.500000
      vertex -6.643865 -20.447715 7.500000
    endloop
  endfacet
  facet normal 0.207912 0.978148 -0.000000
    outer loop
      vertex -6.643865 -20.447715 7.500000
      vertex -2.247362 -21.382221 -8.500000
      vertex -6.643865 -20.447715 -8.500000
    endloop
  endfacet
  facet normal 0.406737 0.913545 -0.000000
    outer loop
      vertex -6.643865 -20.447715 7.500000
      vertex -6.643865 -20.447715 -8.500000
      vertex -10.750000 -18.619546 7.500000
    endloop
  endfacet
  facet normal 0.406737 0.913545 -0.000000
    outer loop
      vertex -10.750000 -18.619546 7.500000
      vertex -6.643865 -20.447715 -8.500000
      vertex -10.750000 -18.619546 -8.500000
    endloop
  endfacet
  facet normal 0.587785 0.809017 -0.000000
    outer loop
      vertex -10.750000 -18.619546 7.500000
      vertex -10.750000 -18.619546 -8.500000
      vertex -14.386308 -15.977614 7.500000
    endloop
  endfacet
  facet normal 0.587785 0.809017 -0.000000
    outer loop
      vertex -14.386308 -15.977614 7.500000
      vertex -10.750000 -18.619546 -8.500000
      vertex -14.386308 -15.977614 -8.500000
    endloop
  endfacet
  facet normal 0.743145 0.669131 0.000000
    outer loop
      vertex -17.393865 -12.637383 7.500000
      vertex -14.386308 -15.977614 7.500000
      vertex -14.386308 -15.977614 -8.500000
    endloop
  endfacet
  facet normal 0.743145 0.669131 0.000000
    outer loop
      vertex -17.393865 -12.637383 -8.500000
      vertex -17.393865 -12.637383 7.500000
      vertex -14.386308 -15.977614 -8.500000
    endloop
  endfacet
  facet normal 0.866025 0.500000 0.000000
    outer loop
      vertex -19.641227 -8.744838 7.500000
      vertex -17.393865 -12.637383 7.500000
      vertex -17.393865 -12.637383 -8.500000
    endloop
  endfacet
  facet normal 0.866025 0.500000 0.000000
    outer loop
      vertex -19.641227 -8.744838 -8.500000
      vertex -19.641227 -8.744838 7.500000
      vertex -17.393865 -12.637383 -8.500000
    endloop
  endfacet
  facet normal 0.951057 0.309017 0.000000
    outer loop
      vertex -21.030173 -4.470101 7.500000
      vertex -19.641227 -8.744838 7.500000
      vertex -19.641227 -8.744838 -8.500000
    endloop
  endfacet
  facet normal 0.951057 0.309017 0.000000
    outer loop
      vertex -21.030173 -4.470101 -8.500000
      vertex -21.030173 -4.470101 7.500000
      vertex -19.641227 -8.744838 -8.500000
    endloop
  endfacet
  facet normal 0.000000 0.000000 1.000000
    outer loop
      vertex -26.899059 -5.717571 -7.500000
      vertex -25.122500 -11.185258 -7.500000
      vertex -22.247967 -16.164094 -7.500000
    endloop
  endfacet
  facet normal -0.000000 -0.000000 1.000000
    outer loop
      vertex -20.629933 -14.988524 -7.500000
      vertex -26.899059 -5.717571 -7.500000
      vertex -18.401092 -20.436483 -7.500000
    endloop
  endfacet
  facet normal 0.000000 0.000000 1.000000
    outer loop
      vertex -18.401092 -20.436483 -7.500000
      vertex -26.899059 -5.717571 -7.500000
      vertex -22.247967 -16.164094 -7.500000
    endloop
  endfacet
  facet normal 0.000000 0.000000 1.000000
    outer loop
      vertex -20.629933 -14.988524 -7.500000
      vertex -23.295409 -10.371784 -7.500000
      vertex -26.899059 -5.717571 -7.500000
    endloop
  endfacet
  facet normal -0.000000 -0.000000 1.000000
    outer loop
      vertex -17.062830 -18.950193 -7.500000
      vertex -20.629933 -14.988524 -7.500000
      vertex -13.750000 -23.815699 -7.500000
    endloop
  endfacet
  facet normal -0.000000 0.000000 1.000000
    outer loop
      vertex -7.879933 -24.251941 -7.500000
      vertex -12.750000 -22.083648 -7.500000
      vertex -8.497967 -26.154054 -7.500000
    endloop
  endfacet
  facet normal -0.000000 0.000000 1.000000
    outer loop
      vertex -2.665476 -25.360308 -7.500000
      vertex -7.879933 -24.251941 -7.500000
      vertex -2.874533 -27.349352 -7.500000
    endloop
  endfacet
  facet normal 0.000000 -0.000000 1.000000
    outer loop
      vertex 2.665476 -25.360308 -7.500000
      vertex -2.665476 -25.360308 -7.500000
      vertex 2.874533 -27.349352 -7.500000
    endloop
  endfacet
  facet normal 0.000000 -0.000000 1.000000
    outer loop
      vertex 7.879933 -24.251941 -7.500000
      vertex 2.665476 -25.360308 -7.500000
      vertex 8.497967 -26.154054 -7.500000
    endloop
  endfacet
  facet normal 0.000000 -0.000000 1.000000
    outer loop
      vertex 12.750000 -22.083648 -7.500000
      vertex 7.879933 -24.251941 -7.500000
      vertex 13.750000 -23.815699 -7.500000
    endloop
  endfacet
  facet normal 0.000000 -0.000000 1.000000
    outer loop
      vertex 17.062830 -18.950193 -7.500000
      vertex 12.750000 -22.083648 -7.500000
      vertex 18.401092 -20.436483 -7.500000
    endloop
  endfacet
  facet normal 0.000000 -0.000000 1.000000
    outer loop
      vertex 20.629933 -14.988524 -7.500000
      vertex 17.062830 -18.950193 -7.500000
      vertex 22.247967 -16.164094 -7.500000
    endloop
  endfacet
  facet normal 0.000000 -0.000000 1.000000
    outer loop
      vertex 23.295409 -10.371784 -7.500000
      vertex 20.629933 -14.988524 -7.500000
      vertex 25.122500 -11.185258 -7.500000
    endloop
  endfacet
  facet normal 0.000000 -0.000000 1.000000
    outer loop
      vertex 24.942764 -5.301748 -7.500000
      vertex 23.295409 -10.371784 -7.500000
      vertex 26.899059 -5.717571 -7.500000
    endloop
  endfacet
  facet normal 0.000000 0.000000 1.000000
    outer loop
      vertex -20.629933 14.988524 -7.500000
      vertex -17.062830 18.950193 -7.500000
      vertex -18.401092 20.436483 -7.500000
    endloop
  endfacet
  facet normal 0.000000 -0.000000 1.000000
    outer loop
      vertex -26.899059 5.717571 -7.500000
      vertex -26.899059 -5.717571 -7.500000
      vertex -25.122500 11.185258 -7.500000
    endloop
  endfacet
  facet normal 0.000000 0.000000 1.000000
    outer loop
      vertex -27.500000 0.000000 -7.500000
      vertex -26.899059 -5.717571 -7.500000
      vertex -26.899059 5.717571 -7.500000
    endloop
  endfacet
  facet normal 0.000000 0.000000 1.000000
    outer loop
      vertex -17.062830 18.950193 -7.500000
      vertex -12.750000 22.083648 -7.500000
      vertex -13.750000 23.815699 -7.500000
    endloop
  endfacet
  facet normal 0.000000 0.000000 1.000000
    outer loop
      vertex -24.942764 5.301748 -7.500000
      vertex -23.295409 10.371784 -7.500000
      vertex -22.247967 16.164094 -7.500000
    endloop
  endfacet
  facet normal 0.000000 0.000000 1.000000
    outer loop
      vertex -25.122500 11.185258 -7.500000
      vertex -24.942764 5.301748 -7.500000
      vertex -22.247967 16.164094 -7.500000
    endloop
  endfacet
  facet normal 0.000000 -0.000000 1.000000
    outer loop
      vertex -25.122500 11.185258 -7.500000
      vertex -26.899059 -5.717571 -7.500000
      vertex -24.942764 5.301748 -7.500000
    endloop
  endfacet
  facet normal 0.000000 -0.000000 1.000000
    outer loop
      vertex -22.247967 16.164094 -7.500000
      vertex -23.295409 10.371784 -7.500000
      vertex -18.401092 20.436483 -7.500000
    endloop
  endfacet
  facet normal 0.000000 0.000000 1.000000
    outer loop
      vertex -23.295409 10.371784 -7.500000
      vertex -20.629933 14.988524 -7.500000
      vertex -18.401092 20.436483 -7.500000
    endloop
  endfacet
  facet normal 0.000000 0.000000 1.000000
    outer loop
      vertex -18.401092 20.436483 -7.500000
      vertex -17.062830 18.950193 -7.500000
      vertex -13.750000 23.815699 -7.500000
    endloop
  endfacet
  facet normal -0.000000 0.000000 1.000000
    outer loop
      vertex -25.500000 0.000000 -7.500000
      vertex -24.942764 5.301748 -7.500000
      vertex -26.899059 -5.717571 -7.500000
    endloop
  endfacet
  facet normal 0.000000 0.000000 1.000000
    outer loop
      vertex -13.750000 23.815699 -7.500000
      vertex -12.750000 22.083648 -7.500000
      vertex -8.497967 26.154054 -7.500000
    endloop
  endfacet
  facet normal 0.000000 0.000000 1.000000
    outer loop
      vertex -8.497967 26.154054 -7.500000
      vertex -7.879933 24.251941 -7.500000
      vertex -2.874533 27.349352 -7.500000
    endloop
  endfacet
  facet normal 0.000000 0.000000 1.000000
    outer loop
      vertex -2.874533 27.349352 -7.500000
      vertex -2.665476 25.360308 -7.500000
      vertex 2.874533 27.349352 -7.500000
    endloop
  endfacet
  facet normal 0.000000 -0.000000 1.000000
    outer loop
      vertex 2.874533 27.349352 -7.500000
      vertex 2.665476 25.360308 -7.500000
      vertex 8.497967 26.154054 -7.500000
    endloop
  endfacet
  facet normal 0.000000 -0.000000 1.000000
    outer loop
      vertex 8.497967 26.154054 -7.500000
      vertex 7.879933 24.251941 -7.500000
      vertex 13.750000 23.815699 -7.500000
    endloop
  endfacet
  facet normal 0.000000 0.000000 1.000000
    outer loop
      vertex -23.295409 -10.371784 -7.500000
      vertex -24.942764 -5.301748 -7.500000
      vertex -26.899059 -5.717571 -7.500000
    endloop
  endfacet
  facet normal 0.000000 -0.000000 1.000000
    outer loop
      vertex 13.750000 23.815699 -7.500000
      vertex 12.750000 22.083648 -7.500000
      vertex 18.401092 20.436483 -7.500000
    endloop
  endfacet
  facet normal 0.000000 -0.000000 1.000000
    outer loop
      vertex 18.401092 20.436483 -7.500000
      vertex 17.062830 18.950193 -7.500000
      vertex 22.247967 16.164094 -7.500000
    endloop
  endfacet
  facet normal 0.000000 -0.000000 1.000000
    outer loop
      vertex 22.247967 16.164094 -7.500000
      vertex 20.629933 14.988524 -7.500000
      vertex 25.122500 11.185258 -7.500000
    endloop
  endfacet
  facet normal 0.000000 -0.000000 1.000000
    outer loop
      vertex 25.122500 11.185258 -7.500000
      vertex 23.295409 10.371784 -7.500000
      vertex 26.899059 5.717571 -7.500000
    endloop
  endfacet
  facet normal 0.000000 0.000000 1.000000
    outer loop
      vertex 23.295409 10.371784 -7.500000
      vertex 24.942764 5.301748 -7.500000
      vertex 26.899059 5.717571 -7.500000
    endloop
  endfacet
  facet normal 0.000000 -0.000000 1.000000
    outer loop
      vertex 26.899059 5.717571 -7.500000
      vertex 25.500000 0.000000 -7.500000
      vertex 27.500000 0.000000 -7.500000
    endloop
  endfacet
  facet normal 0.000000 0.000000 1.000000
    outer loop
      vertex 27.500000 0.000000 -7.500000
      vertex 24.942764 -5.301748 -7.500000
      vertex 26.899059 -5.717571 -7.500000
    endloop
  endfacet
  facet normal 0.000000 0.000000 1.000000
    outer loop
      vertex 26.899059 -5.717571 -7.500000
      vertex 23.295409 -10.371784 -7.500000
      vertex 25.122500 -11.185258 -7.500000
    endloop
  endfacet
  facet normal 0.000000 0.000000 1.000000
    outer loop
      vertex 25.122500 -11.185258 -7.500000
      vertex 20.629933 -14.988524 -7.500000
      vertex 22.247967 -16.164094 -7.500000
    endloop
  endfacet
  facet normal 0.000000 0.000000 1.000000
    outer loop
      vertex 22.247967 -16.164094 -7.500000
      vertex 17.062830 -18.950193 -7.500000
      vertex 18.401092 -20.436483 -7.500000
    endloop
  endfacet
  facet normal 0.000000 0.000000 1.000000
    outer loop
      vertex 18.401092 -20.436483 -7.500000
      vertex 12.750000 -22.083648 -7.500000
      vertex 13.750000 -23.815699 -7.500000
    endloop
  endfacet
  facet normal 0.000000 0.000000 1.000000
    outer loop
      vertex 13.750000 -23.815699 -7.500000
      vertex 7.879933 -24.251941 -7.500000
      vertex 8.497967 -26.154054 -7.500000
    endloop
  endfacet
  facet normal -0.000000 0.000000 1.000000
    outer loop
      vertex 8.497967 -26.154054 -7.500000
      vertex 2.665476 -25.360308 -7.500000
      vertex 2.874533 -27.349352 -7.500000
    endloop
  endfacet
  facet normal -0.000000 0.000000 1.000000
    outer loop
      vertex 2.874533 -27.349352 -7.500000
      vertex -2.665476 -25.360308 -7.500000
      vertex -2.874533 -27.349352 -7.500000
    endloop
  endfacet
  facet normal 0.000000 0.000000 1.000000
    outer loop
      vertex -2.874533 -27.349352 -7.500000
      vertex -7.879933 -24.251941 -7.500000
      vertex -8.497967 -26.154054 -7.500000
    endloop
  endfacet
  facet normal 0.000000 0.000000 1.000000
    outer loop
      vertex -8.497967 -26.154054 -7.500000
      vertex -12.750000 -22.083648 -7.500000
      vertex -13.750000 -23.815699 -7.500000
    endloop
  endfacet
  facet normal -0.000000 0.000000 1.000000
    outer loop
      vertex -12.750000 -22.083648 -7.500000
      vertex -17.062830 -18.950193 -7.500000
      vertex -13.750000 -23.815699 -7.500000
    endloop
  endfacet
  facet normal 0.000000 0.000000 1.000000
    outer loop
      vertex -13.750000 -23.815699 -7.500000
      vertex -20.629933 -14.988524 -7.500000
      vertex -18.401092 -20.436483 -7.500000
    endloop
  endfacet
  facet normal 0.000000 0.000000 1.000000
    outer loop
      vertex -12.750000 22.083648 -7.500000
      vertex -7.879933 24.251941 -7.500000
      vertex -8.497967 26.154054 -7.500000
    endloop
  endfacet
  facet normal 0.000000 0.000000 1.000000
    outer loop
      vertex -7.879933 24.251941 -7.500000
      vertex -2.665476 25.360308 -7.500000
      vertex -2.874533 27.349352 -7.500000
    endloop
  endfacet
  facet normal 0.000000 0.000000 1.000000
    outer loop
      vertex -2.665476 25.360308 -7.500000
      vertex 2.665476 25.360308 -7.500000
      vertex 2.874533 27.349352 -7.500000
    endloop
  endfacet
  facet normal 0.000000 0.000000 1.000000
    outer loop
      vertex 2.665476 25.360308 -7.500000
      vertex 7.879933 24.251941 -7.500000
      vertex 8.497967 26.154054 -7.500000
    endloop
  endfacet
  facet normal 0.000000 0.000000 1.000000
    outer loop
      vertex 7.879933 24.251941 -7.500000
      vertex 12.750000 22.083648 -7.500000
      vertex 13.750000 23.815699 -7.500000
    endloop
  endfacet
  facet normal 0.000000 0.000000 1.000000
    outer loop
      vertex 12.750000 22.083648 -7.500000
      vertex 17.062830 18.950193 -7.500000
      vertex 18.401092 20.436483 -7.500000
    endloop
  endfacet
  facet normal 0.000000 0.000000 1.000000
    outer loop
      vertex 17.062830 18.950193 -7.500000
      vertex 20.629933 14.988524 -7.500000
      vertex 22.247967 16.164094 -7.500000
    endloop
  endfacet
  facet normal 0.000000 0.000000 1.000000
    outer loop
      vertex 20.629933 14.988524 -7.500000
      vertex 23.295409 10.371784 -7.500000
      vertex 25.122500 11.185258 -7.500000
    endloop
  endfacet
  facet normal 0.000000 0.000000 1.000000
    outer loop
      vertex 24.942764 5.301748 -7.500000
      vertex 25.500000 0.000000 -7.500000
      vertex 26.899059 5.717571 -7.500000
    endloop
  endfacet
  facet normal 0.000000 -0.000000 1.000000
    outer loop
      vertex 25.500000 0.000000 -7.500000
      vertex 24.942764 -5.301748 -7.500000
      vertex 27.500000 0.000000 -7.500000
    endloop
  endfacet
  facet normal -0.000000 0.000000 1.000000
    outer loop
      vertex -24.942764 -5.301748 -7.500000
      vertex -25.500000 0.000000 -7.500000
      vertex -26.899059 -5.717571 -7.500000
    endloop
  endfacet
  facet normal 0.000000 0.000000 1.000000
    outer loop
      vertex -24.942764 5.301748 7.500000
      vertex -25.500000 0.000000 7.500000
      vertex -24.942764 -5.301748 7.500000
    endloop
  endfacet
  facet normal 0.000000 0.000000 1.000000
    outer loop
      vertex -20.629933 -14.988524 7.500000
      vertex -24.942764 5.301748 7.500000
      vertex -23.295409 -10.371784 7.500000
    endloop
  endfacet
  facet normal 0.000000 0.000000 1.000000
    outer loop
      vertex -23.295409 -10.371784 7.500000
      vertex -24.942764 5.301748 7.500000
      vertex -24.942764 -5.301748 7.500000
    endloop
  endfacet
  facet normal 0.000000 0.000000 1.000000
    outer loop
      vertex -17.062830 -18.950193 7.500000
      vertex -24.942764 5.301748 7.500000
      vertex -20.629933 -14.988524 7.500000
    endloop
  endfacet
  facet normal -0.000000 -0.000000 1.000000
    outer loop
      vertex -21.030173 -4.470101 7.500000
      vertex -24.942764 5.301748 7.500000
      vertex -17.062830 -18.950193 7.500000
    endloop
  endfacet
  facet normal 0.000000 0.000000 1.000000
    outer loop
      vertex 2.247362 21.382221 7.500000
      vertex 6.643865 20.447715 7.500000
      vertex 7.879933 24.251941 7.500000
    endloop
  endfacet
  facet normal 0.000000 0.000000 1.000000
    outer loop
      vertex -6.643865 20.447715 7.500000
      vertex -2.247362 21.382221 7.500000
      vertex 2.665476 25.360308 7.500000
    endloop
  endfacet
  facet normal 0.000000 -0.000000 1.000000
    outer loop
      vertex -12.750000 22.083648 7.500000
      vertex -24.942764 5.301748 7.500000
      vertex -7.879933 24.251941 7.500000
    endloop
  endfacet
  facet normal 0.000000 -0.000000 1.000000
    outer loop
      vertex -17.062830 18.950193 7.500000
      vertex -24.942764 5.301748 7.500000
      vertex -12.750000 22.083648 7.500000
    endloop
  endfacet
  facet normal 0.000000 -0.000000 1.000000
    outer loop
      vertex -20.629933 14.988524 7.500000
      vertex -24.942764 5.301748 7.500000
      vertex -17.062830 18.950193 7.500000
    endloop
  endfacet
  facet normal 0.000000 -0.000000 1.000000
    outer loop
      vertex -23.295409 10.371784 7.500000
      vertex -24.942764 5.301748 7.500000
      vertex -20.629933 14.988524 7.500000
    endloop
  endfacet
  facet normal -0.000000 -0.000000 1.000000
    outer loop
      vertex -19.641227 -8.744838 7.500000
      vertex -21.030173 -4.470101 7.500000
      vertex -17.062830 -18.950193 7.500000
    endloop
  endfacet
  facet normal 0.000000 -0.000000 1.000000
    outer loop
      vertex 10.750000 -18.619546 7.500000
      vertex 6.643865 -20.447715 7.500000
      vertex 12.750000 -22.083648 7.500000
    endloop
  endfacet
  facet normal 0.000000 -0.000000 1.000000
    outer loop
      vertex 17.393865 -12.637383 7.500000
      vertex 14.386308 -15.977614 7.500000
      vertex 20.629933 -14.988524 7.500000
    endloop
  endfacet
  facet normal 0.000000 0.000000 1.000000
    outer loop
      vertex 6.643865 20.447715 7.500000
      vertex 10.750000 18.619546 7.500000
      vertex 12.750000 22.083648 7.500000
    endloop
  endfacet
  facet normal 0.000000 0.000000 1.000000
    outer loop
      vertex -7.879933 24.251941 7.500000
      vertex -24.942764 5.301748 7.500000
      vertex -17.393865 12.637383 7.500000
    endloop
  endfacet
  facet normal 0.000000 -0.000000 1.000000
    outer loop
      vertex -7.879933 24.251941 7.500000
      vertex -14.386308 15.977614 7.500000
      vertex -2.665476 25.360308 7.500000
    endloop
  endfacet
  facet normal 0.000000 0.000000 1.000000
    outer loop
      vertex -7.879933 24.251941 7.500000
      vertex -17.393865 12.637383 7.500000
      vertex -14.386308 15.977614 7.500000
    endloop
  endfacet
  facet normal 0.000000 0.000000 1.000000
    outer loop
      vertex -14.386308 15.977614 7.500000
      vertex -10.750000 18.619546 7.500000
      vertex -2.665476 25.360308 7.500000
    endloop
  endfacet
  facet normal 0.000000 -0.000000 1.000000
    outer loop
      vertex -2.665476 25.360308 7.500000
      vertex -6.643865 20.447715 7.500000
      vertex 2.665476 25.360308 7.500000
    endloop
  endfacet
  facet normal 0.000000 0.000000 1.000000
    outer loop
      vertex -10.750000 18.619546 7.500000
      vertex -6.643865 20.447715 7.500000
      vertex -2.665476 25.360308 7.500000
    endloop
  endfacet
  facet normal 0.000000 -0.000000 1.000000
    outer loop
      vertex 2.665476 25.360308 7.500000
      vertex -2.247362 21.382221 7.500000
      vertex 7.879933 24.251941 7.500000
    endloop
  endfacet
  facet normal 0.000000 0.000000 1.000000
    outer loop
      vertex -2.247362 21.382221 7.500000
      vertex 2.247362 21.382221 7.500000
      vertex 7.879933 24.251941 7.500000
    endloop
  endfacet
  facet normal 0.000000 -0.000000 1.000000
    outer loop
      vertex 7.879933 24.251941 7.500000
      vertex 6.643865 20.447715 7.500000
      vertex 12.750000 22.083648 7.500000
    endloop
  endfacet
  facet normal -0.000000 0.000000 1.000000
    outer loop
      vertex -2.247362 -21.382221 7.500000
      vertex -6.643865 -20.447715 7.500000
      vertex -2.665476 -25.360308 7.500000
    endloop
  endfacet
  facet normal 0.000000 -0.000000 1.000000
    outer loop
      vertex 12.750000 22.083648 7.500000
      vertex 10.750000 18.619546 7.500000
      vertex 17.062830 18.950193 7.500000
    endloop
  endfacet
  facet normal -0.000000 0.000000 1.000000
    outer loop
      vertex -19.641227 8.744838 7.500000
      vertex -17.393865 12.637383 7.500000
      vertex -24.942764 5.301748 7.500000
    endloop
  endfacet
  facet normal 0.000000 -0.000000 1.000000
    outer loop
      vertex 17.062830 18.950193 7.500000
      vertex 14.386308 15.977614 7.500000
      vertex 20.629933 14.988524 7.500000
    endloop
  endfacet
  facet normal 0.000000 -0.000000 1.000000
    outer loop
      vertex 20.629933 14.988524 7.500000
      vertex 17.393865 12.637383 7.500000
      vertex 23.295409 10.371784 7.500000
    endloop
  endfacet
  facet normal 0.000000 -0.000000 1.000000
    outer loop
      vertex 23.295409 10.371784 7.500000
      vertex 19.641227 8.744838 7.500000
      vertex 24.942764 5.301748 7.500000
    endloop
  endfacet
  facet normal 0.000000 -0.000000 1.000000
    outer loop
      vertex 24.942764 5.301748 7.500000
      vertex 21.030173 4.470101 7.500000
      vertex 25.500000 0.000000 7.500000
    endloop
  endfacet
  facet normal 0.000000 0.000000 1.000000
    outer loop
      vertex 25.500000 0.000000 7.500000
      vertex 21.500000 0.000000 7.500000
      vertex 24.942764 -5.301748 7.500000
    endloop
  endfacet
  facet normal 0.000000 -0.000000 1.000000
    outer loop
      vertex 21.500000 0.000000 7.500000
      vertex 21.030173 -4.470101 7.500000
      vertex 24.942764 -5.301748 7.500000
    endloop
  endfacet
  facet normal 0.000000 0.000000 1.000000
    outer loop
      vertex 24.942764 -5.301748 7.500000
      vertex 19.641227 -8.744838 7.500000
      vertex 23.295409 -10.371784 7.500000
    endloop
  endfacet
  facet normal 0.000000 0.000000 1.000000
    outer loop
      vertex 23.295409 -10.371784 7.500000
      vertex 17.393865 -12.637383 7.500000
      vertex 20.629933 -14.988524 7.500000
    endloop
  endfacet
  facet normal 0.000000 0.000000 1.000000
    outer loop
      vertex 10.750000 18.619546 7.500000
      vertex 14.386308 15.977614 7.500000
      vertex 17.062830 18.950193 7.500000
    endloop
  endfacet
  facet normal 0.000000 0.000000 1.000000
    outer loop
      vertex 20.629933 -14.988524 7.500000
      vertex 14.386308 -15.977614 7.500000
      vertex 17.062830 -18.950193 7.500000
    endloop
  endfacet
  facet normal 0.000000 0.000000 1.000000
    outer loop
      vertex 14.386308 15.977614 7.500000
      vertex 17.393865 12.637383 7.500000
      vertex 20.629933 14.988524 7.500000
    endloop
  endfacet
  facet normal -0.000000 0.000000 1.000000
    outer loop
      vertex 17.062830 -18.950193 7.500000
      vertex 10.750000 -18.619546 7.500000
      vertex 12.750000 -22.083648 7.500000
    endloop
  endfacet
  facet normal 0.000000 0.000000 1.000000
    outer loop
      vertex 17.393865 12.637383 7.500000
      vertex 19.641227 8.744838 7.500000
      vertex 23.295409 10.371784 7.500000
    endloop
  endfacet
  facet normal -0.000000 0.000000 1.000000
    outer loop
      vertex 12.750000 -22.083648 7.500000
      vertex 6.643865 -20.447715 7.500000
      vertex 7.879933 -24.251941 7.500000
    endloop
  endfacet
  facet normal 0.000000 0.000000 1.000000
    outer loop
      vertex 19.641227 8.744838 7.500000
      vertex 21.030173 4.470101 7.500000
      vertex 24.942764 5.301748 7.500000
    endloop
  endfacet
  facet normal -0.000000 0.000000 1.000000
    outer loop
      vertex 7.879933 -24.251941 7.500000
      vertex 2.247362 -21.382221 7.500000
      vertex 2.665476 -25.360308 7.500000
    endloop
  endfacet
  facet normal 0.000000 0.000000 1.000000
    outer loop
      vertex 21.030173 4.470101 7.500000
      vertex 21.500000 0.000000 7.500000
      vertex 25.500000 0.000000 7.500000
    endloop
  endfacet
  facet normal -0.000000 0.000000 1.000000
    outer loop
      vertex 2.665476 -25.360308 7.500000
      vertex -2.247362 -21.382221 7.500000
      vertex -2.665476 -25.360308 7.500000
    endloop
  endfacet
  facet normal 0.000000 -0.000000 1.000000
    outer loop
      vertex 21.030173 -4.470101 7.500000
      vertex 19.641227 -8.744838 7.500000
      vertex 24.942764 -5.301748 7.500000
    endloop
  endfacet
  facet normal 0.000000 0.000000 1.000000
    outer loop
      vertex -2.665476 -25.360308 7.500000
      vertex -6.643865 -20.447715 7.500000
      vertex -7.879933 -24.251941 7.500000
    endloop
  endfacet
  facet normal -0.000000 0.000000 1.000000
    outer loop
      vertex -6.643865 -20.447715 7.500000
      vertex -10.750000 -18.619546 7.500000
      vertex -7.879933 -24.251941 7.500000
    endloop
  endfacet
  facet normal 0.000000 0.000000 1.000000
    outer loop
      vertex -7.879933 -24.251941 7.500000
      vertex -14.386308 -15.977614 7.500000
      vertex -12.750000 -22.083648 7.500000
    endloop
  endfacet
  facet normal 0.000000 -0.000000 1.000000
    outer loop
      vertex 14.386308 -15.977614 7.500000
      vertex 10.750000 -18.619546 7.500000
      vertex 17.062830 -18.950193 7.500000
    endloop
  endfacet
  facet normal 0.000000 0.000000 1.000000
    outer loop
      vertex -12.750000 -22.083648 7.500000
      vertex -17.393865 -12.637383 7.500000
      vertex -17.062830 -18.950193 7.500000
    endloop
  endfacet
  facet normal -0.000000 -0.000000 1.000000
    outer loop
      vertex -17.393865 -12.637383 7.500000
      vertex -19.641227 -8.744838 7.500000
      vertex -17.062830 -18.950193 7.500000
    endloop
  endfacet
  facet normal 0.000000 0.000000 1.000000
    outer loop
      vertex -21.030173 -4.470101 7.500000
      vertex -21.500000 0.000000 7.500000
      vertex -24.942764 5.301748 7.500000
    endloop
  endfacet
  facet normal 0.000000 -0.000000 1.000000
    outer loop
      vertex 6.643865 -20.447715 7.500000
      vertex 2.247362 -21.382221 7.500000
      vertex 7.879933 -24.251941 7.500000
    endloop
  endfacet
  facet normal 0.000000 -0.000000 1.000000
    outer loop
      vertex 2.247362 -21.382221 7.500000
      vertex -2.247362 -21.382221 7.500000
      vertex 2.665476 -25.360308 7.500000
    endloop
  endfacet
  facet normal -0.000000 -0.000000 1.000000
    outer loop
      vertex -14.386308 -15.977614 7.500000
      vertex -17.393865 -12.637383 7.500000
      vertex -12.750000 -22.083648 7.500000
    endloop
  endfacet
  facet normal -0.000000 -0.000000 1.000000
    outer loop
      vertex -10.750000 -18.619546 7.500000
      vertex -14.386308 -15.977614 7.500000
      vertex -7.879933 -24.251941 7.500000
    endloop
  endfacet
  facet normal 0.000000 0.000000 1.000000
    outer loop
      vertex -21.500000 0.000000 7.500000
      vertex -21.030173 4.470101 7.500000
      vertex -24.942764 5.301748 7.500000
    endloop
  endfacet
  facet normal 0.000000 -0.000000 1.000000
    outer loop
      vertex 19.641227 -8.744838 7.500000
      vertex 17.393865 -12.637383 7.500000
      vertex 23.295409 -10.371784 7.500000
    endloop
  endfacet
  facet normal 0.000000 0.000000 1.000000
    outer loop
      vertex -21.030173 4.470101 7.500000
      vertex -19.641227 8.744838 7.500000
      vertex -24.942764 5.301748 7.500000
    endloop
  endfacet
  facet normal -0.994522 0.104528 0.000000
    outer loop
      vertex -25.500000 0.000000 -7.500000
      vertex -25.500000 0.000000 7.500000
      vertex -24.942764 5.301748 -7.500000
    endloop
  endfacet
  facet normal -0.994522 0.104528 0.000000
    outer loop
      vertex -24.942764 5.301748 -7.500000
      vertex -25.500000 0.000000 7.500000
      vertex -24.942764 5.301748 7.500000
    endloop
  endfacet
  facet normal -0.994522 -0.104528 -0.000000
    outer loop
      vertex -25.500000 0.000000 -7.500000
      vertex -24.942764 -5.301748 -7.500000
      vertex -25.500000 0.000000 7.500000
    endloop
  endfacet
  facet normal -0.994522 -0.104528 0.000000
    outer loop
      vertex -25.500000 0.000000 7.500000
      vertex -24.942764 -5.301748 -7.500000
      vertex -24.942764 -5.301748 7.500000
    endloop
  endfacet
  facet normal -0.951056 -0.309017 -0.000000
    outer loop
      vertex -24.942764 -5.301748 -7.500000
      vertex -23.295409 -10.371784 -7.500000
      vertex -24.942764 -5.301748 7.500000
    endloop
  endfacet
  facet normal -0.951056 -0.309017 0.000000
    outer loop
      vertex -24.942764 -5.301748 7.500000
      vertex -23.295409 -10.371784 -7.500000
      vertex -23.295409 -10.371784 7.500000
    endloop
  endfacet
  facet normal -0.866025 -0.500000 -0.000000
    outer loop
      vertex -23.295409 -10.371784 -7.500000
      vertex -20.629933 -14.988524 -7.500000
      vertex -23.295409 -10.371784 7.500000
    endloop
  endfacet
  facet normal -0.866025 -0.500000 0.000000
    outer loop
      vertex -23.295409 -10.371784 7.500000
      vertex -20.629933 -14.988524 -7.500000
      vertex -20.629933 -14.988524 7.500000
    endloop
  endfacet
  facet normal -0.743145 -0.669131 -0.000000
    outer loop
      vertex -20.629933 -14.988524 -7.500000
      vertex -17.062830 -18.950193 -7.500000
      vertex -20.629933 -14.988524 7.500000
    endloop
  endfacet
  facet normal -0.743145 -0.669131 0.000000
    outer loop
      vertex -20.629933 -14.988524 7.500000
      vertex -17.062830 -18.950193 -7.500000
      vertex -17.062830 -18.950193 7.500000
    endloop
  endfacet
  facet normal -0.587785 -0.809017 0.000000
    outer loop
      vertex -17.062830 -18.950193 7.500000
      vertex -17.062830 -18.950193 -7.500000
      vertex -12.750000 -22.083648 -7.500000
    endloop
  endfacet
  facet normal -0.587785 -0.809017 0.000000
    outer loop
      vertex -12.750000 -22.083648 7.500000
      vertex -17.062830 -18.950193 7.500000
      vertex -12.750000 -22.083648 -7.500000
    endloop
  endfacet
  facet normal -0.406737 -0.913545 0.000000
    outer loop
      vertex -12.750000 -22.083648 7.500000
      vertex -12.750000 -22.083648 -7.500000
      vertex -7.879933 -24.251941 -7.500000
    endloop
  endfacet
  facet normal -0.406737 -0.913545 0.000000
    outer loop
      vertex -7.879933 -24.251941 7.500000
      vertex -12.750000 -22.083648 7.500000
      vertex -7.879933 -24.251941 -7.500000
    endloop
  endfacet
  facet normal -0.207912 -0.978148 0.000000
    outer loop
      vertex -7.879933 -24.251941 7.500000
      vertex -7.879933 -24.251941 -7.500000
      vertex -2.665476 -25.360308 -7.500000
    endloop
  endfacet
  facet normal -0.207912 -0.978148 0.000000
    outer loop
      vertex -2.665476 -25.360308 7.500000
      vertex -7.879933 -24.251941 7.500000
      vertex -2.665476 -25.360308 -7.500000
    endloop
  endfacet
  facet normal 0.000000 -1.000000 0.000000
    outer loop
      vertex -2.665476 -25.360308 7.500000
      vertex -2.665476 -25.360308 -7.500000
      vertex 2.665476 -25.360308 -7.500000
    endloop
  endfacet
  facet normal 0.000000 -1.000000 0.000000
    outer loop
      vertex 2.665476 -25.360308 7.500000
      vertex -2.665476 -25.360308 7.500000
      vertex 2.665476 -25.360308 -7.500000
    endloop
  endfacet
  facet normal 0.207912 -0.978148 0.000000
    outer loop
      vertex 2.665476 -25.360308 7.500000
      vertex 2.665476 -25.360308 -7.500000
      vertex 7.879933 -24.251941 -7.500000
    endloop
  endfacet
  facet normal 0.207912 -0.978148 0.000000
    outer loop
      vertex 7.879933 -24.251941 7.500000
      vertex 2.665476 -25.360308 7.500000
      vertex 7.879933 -24.251941 -7.500000
    endloop
  endfacet
  facet normal 0.406737 -0.913545 0.000000
    outer loop
      vertex 7.879933 -24.251941 7.500000
      vertex 7.879933 -24.251941 -7.500000
      vertex 12.750000 -22.083648 -7.500000
    endloop
  endfacet
  facet normal 0.406737 -0.913545 0.000000
    outer loop
      vertex 12.750000 -22.083648 7.500000
      vertex 7.879933 -24.251941 7.500000
      vertex 12.750000 -22.083648 -7.500000
    endloop
  endfacet
  facet normal 0.587785 -0.809017 0.000000
    outer loop
      vertex 12.750000 -22.083648 7.500000
      vertex 12.750000 -22.083648 -7.500000
      vertex 17.062830 -18.950193 -7.500000
    endloop
  endfacet
  facet normal 0.587785 -0.809017 0.000000
    outer loop
      vertex 17.062830 -18.950193 7.500000
      vertex 12.750000 -22.083648 7.500000
      vertex 17.062830 -18.950193 -7.500000
    endloop
  endfacet
  facet normal 0.743145 -0.669131 0.000000
    outer loop
      vertex 17.062830 -18.950193 7.500000
      vertex 17.062830 -18.950193 -7.500000
      vertex 20.629933 -14.988524 -7.500000
    endloop
  endfacet
  facet normal 0.743145 -0.669131 0.000000
    outer loop
      vertex 20.629933 -14.988524 7.500000
      vertex 17.062830 -18.950193 7.500000
      vertex 20.629933 -14.988524 -7.500000
    endloop
  endfacet
  facet normal 0.866025 -0.500000 0.000000
    outer loop
      vertex 20.629933 -14.988524 7.500000
      vertex 20.629933 -14.988524 -7.500000
      vertex 23.295409 -10.371784 -7.500000
    endloop
  endfacet
  facet normal 0.866025 -0.500000 0.000000
    outer loop
      vertex 23.295409 -10.371784 7.500000
      vertex 20.629933 -14.988524 7.500000
      vertex 23.295409 -10.371784 -7.500000
    endloop
  endfacet
  facet normal 0.951056 -0.309017 0.000000
    outer loop
      vertex 23.295409 -10.371784 7.500000
      vertex 23.295409 -10.371784 -7.500000
      vertex 24.942764 -5.301748 -7.500000
    endloop
  endfacet
  facet normal 0.951056 -0.309017 0.000000
    outer loop
      vertex 24.942764 -5.301748 7.500000
      vertex 23.295409 -10.371784 7.500000
      vertex 24.942764 -5.301748 -7.500000
    endloop
  endfacet
  facet normal 0.994522 -0.104528 0.000000
    outer loop
      vertex 24.942764 -5.301748 7.500000
      vertex 24.942764 -5.301748 -7.500000
      vertex 25.500000 0.000000 -7.500000
    endloop
  endfacet
  facet normal 0.994522 -0.104528 0.000000
    outer loop
      vertex 25.500000 0.000000 7.500000
      vertex 24.942764 -5.301748 7.500000
      vertex 25.500000 0.000000 -7.500000
    endloop
  endfacet
  facet normal 0.994522 0.104528 0.000000
    outer loop
      vertex 25.500000 0.000000 -7.500000
      vertex 24.942764 5.301748 -7.500000
      vertex 24.942764 5.301748 7.500000
    endloop
  endfacet
  facet normal 0.994522 0.104528 -0.000000
    outer loop
      vertex 25.500000 0.000000 7.500000
      vertex 25.500000 0.000000 -7.500000
      vertex 24.942764 5.301748 7.500000
    endloop
  endfacet
  facet normal 0.951056 0.309017 0.000000
    outer loop
      vertex 24.942764 5.301748 -7.500000
      vertex 23.295409 10.371784 -7.500000
      vertex 23.295409 10.371784 7.500000
    endloop
  endfacet
  facet normal 0.951056 0.309017 -0.000000
    outer loop
      vertex 24.942764 5.301748 7.500000
      vertex 24.942764 5.301748 -7.500000
      vertex 23.295409 10.371784 7.500000
    endloop
  endfacet
  facet normal 0.866025 0.500000 0.000000
    outer loop
      vertex 23.295409 10.371784 -7.500000
      vertex 20.629933 14.988524 -7.500000
      vertex 20.629933 14.988524 7.500000
    endloop
  endfacet
  facet normal 0.866025 0.500000 -0.000000
    outer loop
      vertex 23.295409 10.371784 7.500000
      vertex 23.295409 10.371784 -7.500000
      vertex 20.629933 14.988524 7.500000
    endloop
  endfacet
  facet normal 0.743145 0.669131 0.000000
    outer loop
      vertex 20.629933 14.988524 -7.500000
      vertex 17.062830 18.950193 -7.500000
      vertex 17.062830 18.950193 7.500000
    endloop
  endfacet
  facet normal 0.743145 0.669131 -0.000000
    outer loop
      vertex 20.629933 14.988524 7.500000
      vertex 20.629933 14.988524 -7.500000
      vertex 17.062830 18.950193 7.500000
    endloop
  endfacet
  facet normal 0.587785 0.809017 0.000000
    outer loop
      vertex 12.750000 22.083648 -7.500000
      vertex 12.750000 22.083648 7.500000
      vertex 17.062830 18.950193 -7.500000
    endloop
  endfacet
  facet normal 0.587785 0.809017 0.000000
    outer loop
      vertex 17.062830 18.950193 -7.500000
      vertex 12.750000 22.083648 7.500000
      vertex 17.062830 18.950193 7.500000
    endloop
  endfacet
  facet normal 0.406737 0.913545 0.000000
    outer loop
      vertex 7.879933 24.251941 -7.500000
      vertex 7.879933 24.251941 7.500000
      vertex 12.750000 22.083648 -7.500000
    endloop
  endfacet
  facet normal 0.406737 0.913545 0.000000
    outer loop
      vertex 12.750000 22.083648 -7.500000
      vertex 7.879933 24.251941 7.500000
      vertex 12.750000 22.083648 7.500000
    endloop
  endfacet
  facet normal 0.207912 0.978148 0.000000
    outer loop
      vertex 2.665476 25.360308 -7.500000
      vertex 2.665476 25.360308 7.500000
      vertex 7.879933 24.251941 -7.500000
    endloop
  endfacet
  facet normal 0.207912 0.978148 0.000000
    outer loop
      vertex 7.879933 24.251941 -7.500000
      vertex 2.665476 25.360308 7.500000
      vertex 7.879933 24.251941 7.500000
    endloop
  endfacet
  facet normal 0.000000 1.000000 0.000000
    outer loop
      vertex -2.665476 25.360308 -7.500000
      vertex -2.665476 25.360308 7.500000
      vertex 2.665476 25.360308 -7.500000
    endloop
  endfacet
  facet normal 0.000000 1.000000 0.000000
    outer loop
      vertex 2.665476 25.360308 -7.500000
      vertex -2.665476 25.360308 7.500000
      vertex 2.665476 25.360308 7.500000
    endloop
  endfacet
  facet normal -0.207912 0.978148 0.000000
    outer loop
      vertex -7.879933 24.251941 -7.500000
      vertex -7.879933 24.251941 7.500000
      vertex -2.665476 25.360308 -7.500000
    endloop
  endfacet
  facet normal -0.207912 0.978148 0.000000
    outer loop
      vertex -2.665476 25.360308 -7.500000
      vertex -7.879933 24.251941 7.500000
      vertex -2.665476 25.360308 7.500000
    endloop
  endfacet
  facet normal -0.406737 0.913545 0.000000
    outer loop
      vertex -12.750000 22.083648 -7.500000
      vertex -12.750000 22.083648 7.500000
      vertex -7.879933 24.251941 -7.500000
    endloop
  endfacet
  facet normal -0.406737 0.913545 0.000000
    outer loop
      vertex -7.879933 24.251941 -7.500000
      vertex -12.750000 22.083648 7.500000
      vertex -7.879933 24.251941 7.500000
    endloop
  endfacet
  facet normal -0.587785 0.809017 0.000000
    outer loop
      vertex -17.062830 18.950193 -7.500000
      vertex -17.062830 18.950193 7.500000
      vertex -12.750000 22.083648 -7.500000
    endloop
  endfacet
  facet normal -0.587785 0.809017 0.000000
    outer loop
      vertex -12.750000 22.083648 -7.500000
      vertex -17.062830 18.950193 7.500000
      vertex -12.750000 22.083648 7.500000
    endloop
  endfacet
  facet normal -0.743145 0.669131 0.000000
    outer loop
      vertex -20.629933 14.988524 -7.500000
      vertex -20.629933 14.988524 7.500000
      vertex -17.062830 18.950193 -7.500000
    endloop
  endfacet
  facet normal -0.743145 0.669131 0.000000
    outer loop
      vertex -17.062830 18.950193 -7.500000
      vertex -20.629933 14.988524 7.500000
      vertex -17.062830 18.950193 7.500000
    endloop
  endfacet
  facet normal -0.866025 0.500000 0.000000
    outer loop
      vertex -23.295409 10.371784 -7.500000
      vertex -23.295409 10.371784 7.500000
      vertex -20.629933 14.988524 -7.500000
    endloop
  endfacet
  facet normal -0.866025 0.500000 0.000000
    outer loop
      vertex -20.629933 14.988524 -7.500000
      vertex -23.295409 10.371784 7.500000
      vertex -20.629933 14.988524 7.500000
    endloop
  endfacet
  facet normal -0.951056 0.309017 0.000000
    outer loop
      vertex -24.942764 5.301748 -7.500000
      vertex -24.942764 5.301748 7.500000
      vertex -23.295409 10.371784 -7.500000
    endloop
  endfacet
  facet normal -0.951056 0.309017 0.000000
    outer loop
      vertex -23.295409 10.371784 -7.500000
      vertex -24.942764 5.301748 7.500000
      vertex -23.295409 10.371784 7.500000
    endloop
  endfacet
endsolid OpenSCAD_Model
