solid OpenSCAD_Model
  facet normal -0.000000 0.000000 -1.000000
    outer loop
      vertex -25.500000 0.000000 -7.500000
      vertex -24.942764 5.301748 -7.500000
      vertex -24.942764 -5.301748 -7.500000
    endloop
  endfacet
  facet normal 0.000000 -0.000000 -1.000000
    outer loop
      vertex -24.942764 -5.301748 -7.500000
      vertex -24.942764 5.301748 -7.500000
      vertex -23.295409 10.371784 -7.500000
    endloop
  endfacet
  facet normal 0.000000 0.000000 -1.000000
    outer loop
      vertex -24.942764 -5.301748 -7.500000
      vertex -23.295409 10.371784 -7.500000
      vertex -20.629933 14.988524 -7.500000
    endloop
  endfacet
  facet normal 0.000000 0.000000 -1.000000
    outer loop
      vertex -24.942764 -5.301748 -7.500000
      vertex -20.629933 14.988524 -7.500000
      vertex -17.062830 18.950193 -7.500000
    endloop
  endfacet
  facet normal 0.000000 0.000000 -1.000000
    outer loop
      vertex -17.232062 12.519826 -7.500000
      vertex -17.062830 18.950193 -7.500000
      vertex -12.750000 22.083648 -7.500000
    endloop
  endfacet
  facet normal 0.000000 0.000000 -1.000000
    outer loop
      vertex -14.252482 15.828985 -7.500000
      vertex -12.750000 22.083648 -7.500000
      vertex -7.879933 24.251941 -7.500000
    endloop
  endfacet
  facet normal 0.000000 -0.000000 -1.000000
    outer loop
      vertex -6.582062 20.257504 -7.500000
      vertex -7.879933 24.251941 -7.500000
      vertex -2.665476 25.360308 -7.500000
    endloop
  endfacet
  facet normal 0.000000 -0.000000 -1.000000
    outer loop
      vertex -2.226456 21.183316 -7.500000
      vertex -2.665476 25.360308 -7.500000
      vertex 2.665476 25.360308 -7.500000
    endloop
  endfacet
  facet normal 0.000000 0.000000 -1.000000
    outer loop
      vertex 2.226456 21.183316 -7.500000
      vertex 2.665476 25.360308 -7.500000
      vertex 7.879933 24.251941 -7.500000
    endloop
  endfacet
  facet normal 0.000000 0.000000 -1.000000
    outer loop
      vertex 6.582062 20.257504 -7.500000
      vertex 7.879933 24.251941 -7.500000
      vertex 12.750000 22.083648 -7.500000
    endloop
  endfacet
  facet normal 0.000000 0.000000 -1.000000
    outer loop
      vertex 10.650000 18.446341 -7.500000
      vertex 12.750000 22.083648 -7.500000
      vertex 17.062830 18.950193 -7.500000
    endloop
  endfacet
  facet normal -0.000000 0.000000 -1.000000
    outer loop
      vertex 14.252482 15.828985 -7.500000
      vertex 17.062830 18.950193 -7.500000
      vertex 20.629933 14.988524 -7.500000
    endloop
  endfacet
  facet normal -0.000000 0.000000 -1.000000
    outer loop
      vertex 17.232062 12.519826 -7.500000
      vertex 20.629933 14.988524 -7.500000
      vertex 23.295409 10.371784 -7.500000
    endloop
  endfacet
  facet normal 0.000000 0.000000 -1.000000
    outer loop
      vertex 20.834544 4.428519 -7.500000
      vertex 23.295409 10.371784 -7.500000
      vertex 24.942764 5.301748 -7.500000
    endloop
  endfacet
  facet normal -0.000000 0.000000 -1.000000
    outer loop
      vertex 21.300000 0.000000 -7.500000
      vertex 24.942764 5.301748 -7.500000
      vertex 25.500000 0.000000 -7.500000
    endloop
  endfacet
  facet normal -0.000000 0.000000 -1.000000
    outer loop
      vertex 20.834544 -4.428519 -7.500000
      vertex 25.500000 0.000000 -7.500000
      vertex 24.942764 -5.301748 -7.500000
    endloop
  endfacet
  facet normal -0.000000 0.000000 -1.000000
    outer loop
      vertex 19.458518 -8.663490 -7.500000
      vertex 24.942764 -5.301748 -7.500000
      vertex 23.295409 -10.371784 -7.500000
    endloop
  endfacet
  facet normal -0.000000 0.000000 -1.000000
    outer loop
      vertex 17.232062 -12.519826 -7.500000
      vertex 23.295409 -10.371784 -7.500000
      vertex 20.629933 -14.988524 -7.500000
    endloop
  endfacet
  facet normal -0.000000 0.000000 -1.000000
    outer loop
      vertex 14.252482 -15.828985 -7.500000
      vertex 20.629933 -14.988524 -7.500000
      vertex 17.062830 -18.950193 -7.500000
    endloop
  endfacet
  facet normal 0.000000 0.000000 -1.000000
    outer loop
      vertex 10.650000 -18.446341 -7.500000
      vertex 17.062830 -18.950193 -7.500000
      vertex 12.750000 -22.083648 -7.500000
    endloop
  endfacet
  facet normal 0.000000 0.000000 -1.000000
    outer loop
      vertex 6.582062 -20.257504 -7.500000
      vertex 12.750000 -22.083648 -7.500000
      vertex 7.879933 -24.251941 -7.500000
    endloop
  endfacet
  facet normal 0.000000 0.000000 -1.000000
    outer loop
      vertex -2.226456 -21.183316 -7.500000
      vertex 7.879933 -24.251941 -7.500000
      vertex 2.665476 -25.360308 -7.500000
    endloop
  endfacet
  facet normal 0.000000 0.000000 -1.000000
    outer loop
      vertex -6.582062 -20.257504 -7.500000
      vertex 2.665476 -25.360308 -7.500000
      vertex -2.665476 -25.360308 -7.500000
    endloop
  endfacet
  facet normal 0.000000 0.000000 -1.000000
    outer loop
      vertex -14.252482 -15.828985 -7.500000
      vertex -2.665476 -25.360308 -7.500000
      vertex -7.879933 -24.251941 -7.500000
    endloop
  endfacet
  facet normal 0.000000 0.000000 -1.000000
    outer loop
      vertex -24.942764 -5.301748 -7.500000
      vertex -7.879933 -24.251941 -7.500000
      vertex -12.750000 -22.083648 -7.500000
    endloop
  endfacet
  facet normal 0.000000 0.000000 -1.000000
    outer loop
      vertex -24.942764 -5.301748 -7.500000
      vertex -12.750000 -22.083648 -7.500000
      vertex -17.062830 -18.950193 -7.500000
    endloop
  endfacet
  facet normal 0.000000 0.000000 -1.000000
    outer loop
      vertex -24.942764 -5.301748 -7.500000
      vertex -17.062830 -18.950193 -7.500000
      vertex -20.629933 -14.988524 -7.500000
    endloop
  endfacet
  facet normal 0.000000 0.000000 -1.000000
    outer loop
      vertex -24.942764 -5.301748 -7.500000
      vertex -20.629933 -14.988524 -7.500000
      vertex -23.295409 -10.371784 -7.500000
    endloop
  endfacet
  facet normal 0.000000 0.000000 -1.000000
    outer loop
      vertex -20.834544 -4.428519 -7.500000
      vertex -24.942764 -5.301748 -7.500000
      vertex -21.300000 0.000000 -7.500000
    endloop
  endfacet
  facet normal 0.000000 0.000000 -1.000000
    outer loop
      vertex -19.458518 -8.663490 -7.500000
      vertex -24.942764 -5.301748 -7.500000
      vertex -20.834544 -4.428519 -7.500000
    endloop
  endfacet
  facet normal 0.000000 0.000000 -1.000000
    outer loop
      vertex -17.232062 -12.519826 -7.500000
      vertex -24.942764 -5.301748 -7.500000
      vertex -19.458518 -8.663490 -7.500000
    endloop
  endfacet
  facet normal 0.000000 0.000000 -1.000000
    outer loop
      vertex -6.582062 -20.257504 -7.500000
      vertex -2.665476 -25.360308 -7.500000
      vertex -10.650000 -18.446341 -7.500000
    endloop
  endfacet
  facet normal 0.000000 0.000000 -1.000000
    outer loop
      vertex -24.942764 -5.301748 -7.500000
      vertex -17.232062 -12.519826 -7.500000
      vertex -7.879933 -24.251941 -7.500000
    endloop
  endfacet
  facet normal 0.000000 0.000000 -1.000000
    outer loop
      vertex -10.650000 -18.446341 -7.500000
      vertex -2.665476 -25.360308 -7.500000
      vertex -14.252482 -15.828985 -7.500000
    endloop
  endfacet
  facet normal 0.000000 0.000000 -1.000000
    outer loop
      vertex -17.232062 -12.519826 -7.500000
      vertex -14.252482 -15.828985 -7.500000
      vertex -7.879933 -24.251941 -7.500000
    endloop
  endfacet
  facet normal 0.000000 0.000000 -1.000000
    outer loop
      vertex 2.226456 -21.183316 -7.500000
      vertex 7.879933 -24.251941 -7.500000
      vertex -2.226456 -21.183316 -7.500000
    endloop
  endfacet
  facet normal 0.000000 0.000000 -1.000000
    outer loop
      vertex 6.582062 -20.257504 -7.500000
      vertex 7.879933 -24.251941 -7.500000
      vertex 2.226456 -21.183316 -7.500000
    endloop
  endfacet
  facet normal 0.000000 0.000000 -1.000000
    outer loop
      vertex -2.226456 -21.183316 -7.500000
      vertex 2.665476 -25.360308 -7.500000
      vertex -6.582062 -20.257504 -7.500000
    endloop
  endfacet
  facet normal -0.000000 0.000000 -1.000000
    outer loop
      vertex 20.834544 4.428519 -7.500000
      vertex 24.942764 5.301748 -7.500000
      vertex 21.300000 0.000000 -7.500000
    endloop
  endfacet
  facet normal -0.000000 0.000000 -1.000000
    outer loop
      vertex 19.458518 8.663490 -7.500000
      vertex 23.295409 10.371784 -7.500000
      vertex 20.834544 4.428519 -7.500000
    endloop
  endfacet
  facet normal 0.000000 0.000000 -1.000000
    outer loop
      vertex 21.300000 0.000000 -7.500000
      vertex 25.500000 0.000000 -7.500000
      vertex 20.834544 -4.428519 -7.500000
    endloop
  endfacet
  facet normal 0.000000 0.000000 -1.000000
    outer loop
      vertex 20.834544 -4.428519 -7.500000
      vertex 24.942764 -5.301748 -7.500000
      vertex 19.458518 -8.663490 -7.500000
    endloop
  endfacet
  facet normal 0.000000 0.000000 -1.000000
    outer loop
      vertex 19.458518 -8.663490 -7.500000
      vertex 23.295409 -10.371784 -7.500000
      vertex 17.232062 -12.519826 -7.500000
    endloop
  endfacet
  facet normal 0.000000 0.000000 -1.000000
    outer loop
      vertex 17.232062 -12.519826 -7.500000
      vertex 20.629933 -14.988524 -7.500000
      vertex 14.252482 -15.828985 -7.500000
    endloop
  endfacet
  facet normal 0.000000 0.000000 -1.000000
    outer loop
      vertex 14.252482 -15.828985 -7.500000
      vertex 17.062830 -18.950193 -7.500000
      vertex 10.650000 -18.446341 -7.500000
    endloop
  endfacet
  facet normal 0.000000 0.000000 -1.000000
    outer loop
      vertex 10.650000 -18.446341 -7.500000
      vertex 12.750000 -22.083648 -7.500000
      vertex 6.582062 -20.257504 -7.500000
    endloop
  endfacet
  facet normal 0.000000 0.000000 -1.000000
    outer loop
      vertex -10.650000 18.446341 -7.500000
      vertex -7.879933 24.251941 -7.500000
      vertex -6.582062 20.257504 -7.500000
    endloop
  endfacet
  facet normal 0.000000 0.000000 -1.000000
    outer loop
      vertex -14.252482 15.828985 -7.500000
      vertex -7.879933 24.251941 -7.500000
      vertex -10.650000 18.446341 -7.500000
    endloop
  endfacet
  facet normal 0.000000 0.000000 -1.000000
    outer loop
      vertex -6.582062 20.257504 -7.500000
      vertex -2.665476 25.360308 -7.500000
      vertex -2.226456 21.183316 -7.500000
    endloop
  endfacet
  facet normal 0.000000 0.000000 -1.000000
    outer loop
      vertex -19.458518 8.663490 -7.500000
      vertex -17.062830 18.950193 -7.500000
      vertex -17.232062 12.519826 -7.500000
    endloop
  endfacet
  facet normal 0.000000 0.000000 -1.000000
    outer loop
      vertex -24.942764 -5.301748 -7.500000
      vertex -17.062830 18.950193 -7.500000
      vertex -19.458518 8.663490 -7.500000
    endloop
  endfacet
  facet normal 0.000000 0.000000 -1.000000
    outer loop
      vertex -24.942764 -5.301748 -7.500000
      vertex -19.458518 8.663490 -7.500000
      vertex -20.834544 4.428519 -7.500000
    endloop
  endfacet
  facet normal -0.000000 0.000000 -1.000000
    outer loop
      vertex -2.226456 21.183316 -7.500000
      vertex 2.665476 25.360308 -7.500000
      vertex 2.226456 21.183316 -7.500000
    endloop
  endfacet
  facet normal 0.000000 -0.000000 -1.000000
    outer loop
      vertex -21.300000 0.000000 -7.500000
      vertex -24.942764 -5.301748 -7.500000
      vertex -20.834544 4.428519 -7.500000
    endloop
  endfacet
  facet normal 0.000000 0.000000 -1.000000
    outer loop
      vertex -17.232062 12.519826 -7.500000
      vertex -12.750000 22.083648 -7.500000
      vertex -14.252482 15.828985 -7.500000
    endloop
  endfacet
  facet normal -0.000000 0.000000 -1.000000
    outer loop
      vertex 2.226456 21.183316 -7.500000
      vertex 7.879933 24.251941 -7.500000
      vertex 6.582062 20.257504 -7.500000
    endloop
  endfacet
  facet normal -0.000000 0.000000 -1.000000
    outer loop
      vertex 6.582062 20.257504 -7.500000
      vertex 12.750000 22.083648 -7.500000
      vertex 10.650000 18.446341 -7.500000
    endloop
  endfacet
  facet normal -0.000000 0.000000 -1.000000
    outer loop
      vertex 10.650000 18.446341 -7.500000
      vertex 17.062830 18.950193 -7.500000
      vertex 14.252482 15.828985 -7.500000
    endloop
  endfacet
  facet normal 0.000000 0.000000 -1.000000
    outer loop
      vertex 14.252482 15.828985 -7.500000
      vertex 20.629933 14.988524 -7.500000
      vertex 17.232062 12.519826 -7.500000
    endloop
  endfacet
  facet normal 0.000000 0.000000 -1.000000
    outer loop
      vertex 17.232062 12.519826 -7.500000
      vertex 23.295409 10.371784 -7.500000
      vertex 19.458518 8.663490 -7.500000
    endloop
  endfacet
  facet normal -0.994522 0.104528 0.000000
    outer loop
      vertex -25.500000 0.000000 -7.500000
      vertex -25.500000 0.000000 7.500000
      vertex -24.942764 5.301748 -7.500000
    endloop
  endfacet
  facet normal -0.994522 0.104528 0.000000
    outer loop
      vertex -24.942764 5.301748 -7.500000
      vertex -25.500000 0.000000 7.500000
      vertex -24.942764 5.301748 7.500000
    endloop
  endfacet
  facet normal -0.994522 -0.104528 -0.000000
    outer loop
      vertex -25.500000 0.000000 -7.500000
      vertex -24.942764 -5.301748 -7.500000
      vertex -25.500000 0.000000 7.500000
    endloop
  endfacet
  facet normal -0.994522 -0.104528 0.000000
    outer loop
      vertex -25.500000 0.000000 7.500000
      vertex -24.942764 -5.301748 -7.500000
      vertex -24.942764 -5.301748 7.500000
    endloop
  endfacet
  facet normal -0.951056 -0.309017 -0.000000
    outer loop
      vertex -24.942764 -5.301748 -7.500000
      vertex -23.295409 -10.371784 -7.500000
      vertex -24.942764 -5.301748 7.500000
    endloop
  endfacet
  facet normal -0.951056 -0.309017 0.000000
    outer loop
      vertex -24.942764 -5.301748 7.500000
      vertex -23.295409 -10.371784 -7.500000
      vertex -23.295409 -10.371784 7.500000
    endloop
  endfacet
  facet normal -0.866025 -0.500000 -0.000000
    outer loop
      vertex -23.295409 -10.371784 -7.500000
      vertex -20.629933 -14.988524 -7.500000
      vertex -23.295409 -10.371784 7.500000
    endloop
  endfacet
  facet normal -0.866025 -0.500000 0.000000
    outer loop
      vertex -23.295409 -10.371784 7.500000
      vertex -20.629933 -14.988524 -7.500000
      vertex -20.629933 -14.988524 7.500000
    endloop
  endfacet
  facet normal -0.743145 -0.669131 -0.000000
    outer loop
      vertex -20.629933 -14.988524 -7.500000
      vertex -17.062830 -18.950193 -7.500000
      vertex -20.629933 -14.988524 7.500000
    endloop
  endfacet
  facet normal -0.743145 -0.669131 0.000000
    outer loop
      vertex -20.629933 -14.988524 7.500000
      vertex -17.062830 -18.950193 -7.500000
      vertex -17.062830 -18.950193 7.500000
    endloop
  endfacet
  facet normal -0.587785 -0.809017 0.000000
    outer loop
      vertex -17.062830 -18.950193 7.500000
      vertex -17.062830 -18.950193 -7.500000
      vertex -12.750000 -22.083648 -7.500000
    endloop
  endfacet
  facet normal -0.587785 -0.809017 0.000000
    outer loop
      vertex -12.750000 -22.083648 7.500000
      vertex -17.062830 -18.950193 7.500000
      vertex -12.750000 -22.083648 -7.500000
    endloop
  endfacet
  facet normal -0.406737 -0.913545 0.000000
    outer loop
      vertex -12.750000 -22.083648 7.500000
      vertex -12.750000 -22.083648 -7.500000
      vertex -7.879933 -24.251941 -7.500000
    endloop
  endfacet
  facet normal -0.406737 -0.913545 0.000000
    outer loop
      vertex -7.879933 -24.251941 7.500000
      vertex -12.750000 -22.083648 7.500000
      vertex -7.879933 -24.251941 -7.500000
    endloop
  endfacet
  facet normal -0.207912 -0.978148 0.000000
    outer loop
      vertex -7.879933 -24.251941 7.500000
      vertex -7.879933 -24.251941 -7.500000
      vertex -2.665476 -25.360308 -7.500000
    endloop
  endfacet
  facet normal -0.207912 -0.978148 0.000000
    outer loop
      vertex -2.665476 -25.360308 7.500000
      vertex -7.879933 -24.251941 7.500000
      vertex -2.665476 -25.360308 -7.500000
    endloop
  endfacet
  facet normal 0.000000 -1.000000 0.000000
    outer loop
      vertex -2.665476 -25.360308 7.500000
      vertex -2.665476 -25.360308 -7.500000
      vertex 2.665476 -25.360308 -7.500000
    endloop
  endfacet
  facet normal 0.000000 -1.000000 0.000000
    outer loop
      vertex 2.665476 -25.360308 7.500000
      vertex -2.665476 -25.360308 7.500000
      vertex 2.665476 -25.360308 -7.500000
    endloop
  endfacet
  facet normal 0.207912 -0.978148 0.000000
    outer loop
      vertex 2.665476 -25.360308 7.500000
      vertex 2.665476 -25.360308 -7.500000
      vertex 7.879933 -24.251941 -7.500000
    endloop
  endfacet
  facet normal 0.207912 -0.978148 0.000000
    outer loop
      vertex 7.879933 -24.251941 7.500000
      vertex 2.665476 -25.360308 7.500000
      vertex 7.879933 -24.251941 -7.500000
    endloop
  endfacet
  facet normal 0.406737 -0.913545 0.000000
    outer loop
      vertex 7.879933 -24.251941 7.500000
      vertex 7.879933 -24.251941 -7.500000
      vertex 12.750000 -22.083648 -7.500000
    endloop
  endfacet
  facet normal 0.406737 -0.913545 0.000000
    outer loop
      vertex 12.750000 -22.083648 7.500000
      vertex 7.879933 -24.251941 7.500000
      vertex 12.750000 -22.083648 -7.500000
    endloop
  endfacet
  facet normal 0.587785 -0.809017 0.000000
    outer loop
      vertex 12.750000 -22.083648 7.500000
      vertex 12.750000 -22.083648 -7.500000
      vertex 17.062830 -18.950193 -7.500000
    endloop
  endfacet
  facet normal 0.587785 -0.809017 0.000000
    outer loop
      vertex 17.062830 -18.950193 7.500000
      vertex 12.750000 -22.083648 7.500000
      vertex 17.062830 -18.950193 -7.500000
    endloop
  endfacet
  facet normal 0.743145 -0.669131 0.000000
    outer loop
      vertex 17.062830 -18.950193 7.500000
      vertex 17.062830 -18.950193 -7.500000
      vertex 20.629933 -14.988524 -7.500000
    endloop
  endfacet
  facet normal 0.743145 -0.669131 0.000000
    outer loop
      vertex 20.629933 -14.988524 7.500000
      vertex 17.062830 -18.950193 7.500000
      vertex 20.629933 -14.988524 -7.500000
    endloop
  endfacet
  facet normal 0.866025 -0.500000 0.000000
    outer loop
      vertex 20.629933 -14.988524 7.500000
      vertex 20.629933 -14.988524 -7.500000
      vertex 23.295409 -10.371784 -7.500000
    endloop
  endfacet
  facet normal 0.866025 -0.500000 0.000000
    outer loop
      vertex 23.295409 -10.371784 7.500000
      vertex 20.629933 -14.988524 7.500000
      vertex 23.295409 -10.371784 -7.500000
    endloop
  endfacet
  facet normal 0.951056 -0.309017 0.000000
    outer loop
      vertex 23.295409 -10.371784 7.500000
      vertex 23.295409 -10.371784 -7.500000
      vertex 24.942764 -5.301748 -7.500000
    endloop
  endfacet
  facet normal 0.951056 -0.309017 0.000000
    outer loop
      vertex 24.942764 -5.301748 7.500000
      vertex 23.295409 -10.371784 7.500000
      vertex 24.942764 -5.301748 -7.500000
    endloop
  endfacet
  facet normal 0.994522 -0.104528 0.000000
    outer loop
      vertex 24.942764 -5.301748 7.500000
      vertex 24.942764 -5.301748 -7.500000
      vertex 25.500000 0.000000 -7.500000
    endloop
  endfacet
  facet normal 0.994522 -0.104528 0.000000
    outer loop
      vertex 25.500000 0.000000 7.500000
      vertex 24.942764 -5.301748 7.500000
      vertex 25.500000 0.000000 -7.500000
    endloop
  endfacet
  facet normal 0.994522 0.104528 0.000000
    outer loop
      vertex 25.500000 0.000000 -7.500000
      vertex 24.942764 5.301748 -7.500000
      vertex 24.942764 5.301748 7.500000
    endloop
  endfacet
  facet normal 0.994522 0.104528 -0.000000
    outer loop
      vertex 25.500000 0.000000 7.500000
      vertex 25.500000 0.000000 -7.500000
      vertex 24.942764 5.301748 7.500000
    endloop
  endfacet
  facet normal 0.951056 0.309017 0.000000
    outer loop
      vertex 24.942764 5.301748 -7.500000
      vertex 23.295409 10.371784 -7.500000
      vertex 23.295409 10.371784 7.500000
    endloop
  endfacet
  facet normal 0.951056 0.309017 -0.000000
    outer loop
      vertex 24.942764 5.301748 7.500000
      vertex 24.942764 5.301748 -7.500000
      vertex 23.295409 10.371784 7.500000
    endloop
  endfacet
  facet normal 0.866025 0.500000 0.000000
    outer loop
      vertex 23.295409 10.371784 -7.500000
      vertex 20.629933 14.988524 -7.500000
      vertex 20.629933 14.988524 7.500000
    endloop
  endfacet
  facet normal 0.866025 0.500000 -0.000000
    outer loop
      vertex 23.295409 10.371784 7.500000
      vertex 23.295409 10.371784 -7.500000
      vertex 20.629933 14.988524 7.500000
    endloop
  endfacet
  facet normal 0.743145 0.669131 0.000000
    outer loop
      vertex 20.629933 14.988524 -7.500000
      vertex 17.062830 18.950193 -7.500000
      vertex 17.062830 18.950193 7.500000
    endloop
  endfacet
  facet normal 0.743145 0.669131 -0.000000
    outer loop
      vertex 20.629933 14.988524 7.500000
      vertex 20.629933 14.988524 -7.500000
      vertex 17.062830 18.950193 7.500000
    endloop
  endfacet
  facet normal 0.587785 0.809017 0.000000
    outer loop
      vertex 12.750000 22.083648 -7.500000
      vertex 12.750000 22.083648 7.500000
      vertex 17.062830 18.950193 -7.500000
    endloop
  endfacet
  facet normal 0.587785 0.809017 0.000000
    outer loop
      vertex 17.062830 18.950193 -7.500000
      vertex 12.750000 22.083648 7.500000
      vertex 17.062830 18.950193 7.500000
    endloop
  endfacet
  facet normal 0.406737 0.913545 0.000000
    outer loop
      vertex 7.879933 24.251941 -7.500000
      vertex 7.879933 24.251941 7.500000
      vertex 12.750000 22.083648 -7.500000
    endloop
  endfacet
  facet normal 0.406737 0.913545 0.000000
    outer loop
      vertex 12.750000 22.083648 -7.500000
      vertex 7.879933 24.251941 7.500000
      vertex 12.750000 22.083648 7.500000
    endloop
  endfacet
  facet normal 0.207912 0.978148 0.000000
    outer loop
      vertex 2.665476 25.360308 -7.500000
      vertex 2.665476 25.360308 7.500000
      vertex 7.879933 24.251941 -7.500000
    endloop
  endfacet
  facet normal 0.207912 0.978148 0.000000
    outer loop
      vertex 7.879933 24.251941 -7.500000
      vertex 2.665476 25.360308 7.500000
      vertex 7.879933 24.251941 7.500000
    endloop
  endfacet
  facet normal 0.000000 1.000000 0.000000
    outer loop
      vertex -2.665476 25.360308 -7.500000
      vertex -2.665476 25.360308 7.500000
      vertex 2.665476 25.360308 -7.500000
    endloop
  endfacet
  facet normal 0.000000 1.000000 0.000000
    outer loop
      vertex 2.665476 25.360308 -7.500000
      vertex -2.665476 25.360308 7.500000
      vertex 2.665476 25.360308 7.500000
    endloop
  endfacet
  facet normal -0.207912 0.978148 0.000000
    outer loop
      vertex -7.879933 24.251941 -7.500000
      vertex -7.879933 24.251941 7.500000
      vertex -2.665476 25.360308 -7.500000
    endloop
  endfacet
  facet normal -0.207912 0.978148 0.000000
    outer loop
      vertex -2.665476 25.360308 -7.500000
      vertex -7.879933 24.251941 7.500000
      vertex -2.665476 25.360308 7.500000
    endloop
  endfacet
  facet normal -0.406737 0.913545 0.000000
    outer loop
      vertex -12.750000 22.083648 -7.500000
      vertex -12.750000 22.083648 7.500000
      vertex -7.879933 24.251941 -7.500000
    endloop
  endfacet
  facet normal -0.406737 0.913545 0.000000
    outer loop
      vertex -7.879933 24.251941 -7.500000
      vertex -12.750000 22.083648 7.500000
      vertex -7.879933 24.251941 7.500000
    endloop
  endfacet
  facet normal -0.587785 0.809017 0.000000
    outer loop
      vertex -17.062830 18.950193 -7.500000
      vertex -17.062830 18.950193 7.500000
      vertex -12.750000 22.083648 -7.500000
    endloop
  endfacet
  facet normal -0.587785 0.809017 0.000000
    outer loop
      vertex -12.750000 22.083648 -7.500000
      vertex -17.062830 18.950193 7.500000
      vertex -12.750000 22.083648 7.500000
    endloop
  endfacet
  facet normal -0.743145 0.669131 0.000000
    outer loop
      vertex -20.629933 14.988524 -7.500000
      vertex -20.629933 14.988524 7.500000
      vertex -17.062830 18.950193 -7.500000
    endloop
  endfacet
  facet normal -0.743145 0.669131 0.000000
    outer loop
      vertex -17.062830 18.950193 -7.500000
      vertex -20.629933 14.988524 7.500000
      vertex -17.062830 18.950193 7.500000
    endloop
  endfacet
  facet normal -0.866025 0.500000 0.000000
    outer loop
      vertex -23.295409 10.371784 -7.500000
      vertex -23.295409 10.371784 7.500000
      vertex -20.629933 14.988524 -7.500000
    endloop
  endfacet
  facet normal -0.866025 0.500000 0.000000
    outer loop
      vertex -20.629933 14.988524 -7.500000
      vertex -23.295409 10.371784 7.500000
      vertex -20.629933 14.988524 7.500000
    endloop
  endfacet
  facet normal -0.951056 0.309017 0.000000
    outer loop
      vertex -24.942764 5.301748 -7.500000
      vertex -24.942764 5.301748 7.500000
      vertex -23.295409 10.371784 -7.500000
    endloop
  endfacet
  facet normal -0.951056 0.309017 0.000000
    outer loop
      vertex -23.295409 10.371784 -7.500000
      vertex -24.942764 5.301748 7.500000
      vertex -23.295409 10.371784 7.500000
    endloop
  endfacet
  facet normal 0.994522 -0.104528 0.000000
    outer loop
      vertex -20.834544 4.428519 -7.500000
      vertex -20.834544 4.428519 7.500000
      vertex -21.300000 0.000000 7.500000
    endloop
  endfacet
  facet normal 0.994522 -0.104528 0.000000
    outer loop
      vertex -21.300000 0.000000 -7.500000
      vertex -20.834544 4.428519 -7.500000
      vertex -21.300000 0.000000 7.500000
    endloop
  endfacet
  facet normal 0.994522 0.104528 0.000000
    outer loop
      vertex -21.300000 0.000000 7.500000
      vertex -20.834544 -4.428519 7.500000
      vertex -20.834544 -4.428519 -7.500000
    endloop
  endfacet
  facet normal 0.994522 0.104528 0.000000
    outer loop
      vertex -21.300000 0.000000 -7.500000
      vertex -21.300000 0.000000 7.500000
      vertex -20.834544 -4.428519 -7.500000
    endloop
  endfacet
  facet normal 0.951056 -0.309017 0.000000
    outer loop
      vertex -19.458518 8.663490 -7.500000
      vertex -19.458518 8.663490 7.500000
      vertex -20.834544 4.428519 7.500000
    endloop
  endfacet
  facet normal 0.951056 -0.309017 0.000000
    outer loop
      vertex -20.834544 4.428519 -7.500000
      vertex -19.458518 8.663490 -7.500000
      vertex -20.834544 4.428519 7.500000
    endloop
  endfacet
  facet normal 0.866025 -0.500000 0.000000
    outer loop
      vertex -17.232062 12.519826 -7.500000
      vertex -17.232062 12.519826 7.500000
      vertex -19.458518 8.663490 7.500000
    endloop
  endfacet
  facet normal 0.866025 -0.500000 0.000000
    outer loop
      vertex -19.458518 8.663490 -7.500000
      vertex -17.232062 12.519826 -7.500000
      vertex -19.458518 8.663490 7.500000
    endloop
  endfacet
  facet normal 0.743145 -0.669131 0.000000
    outer loop
      vertex -14.252482 15.828985 -7.500000
      vertex -14.252482 15.828985 7.500000
      vertex -17.232062 12.519826 7.500000
    endloop
  endfacet
  facet normal 0.743145 -0.669131 0.000000
    outer loop
      vertex -17.232062 12.519826 -7.500000
      vertex -14.252482 15.828985 -7.500000
      vertex -17.232062 12.519826 7.500000
    endloop
  endfacet
  facet normal 0.587785 -0.809017 0.000000
    outer loop
      vertex -10.650000 18.446341 -7.500000
      vertex -10.650000 18.446341 7.500000
      vertex -14.252482 15.828985 7.500000
    endloop
  endfacet
  facet normal 0.587785 -0.809017 0.000000
    outer loop
      vertex -14.252482 15.828985 -7.500000
      vertex -10.650000 18.446341 -7.500000
      vertex -14.252482 15.828985 7.500000
    endloop
  endfacet
  facet normal 0.406737 -0.913545 0.000000
    outer loop
      vertex -6.582062 20.257504 -7.500000
      vertex -6.582062 20.257504 7.500000
      vertex -10.650000 18.446341 7.500000
    endloop
  endfacet
  facet normal 0.406737 -0.913545 0.000000
    outer loop
      vertex -10.650000 18.446341 -7.500000
      vertex -6.582062 20.257504 -7.500000
      vertex -10.650000 18.446341 7.500000
    endloop
  endfacet
  facet normal 0.207912 -0.978148 0.000000
    outer loop
      vertex -2.226456 21.183316 -7.500000
      vertex -2.226456 21.183316 7.500000
      vertex -6.582062 20.257504 7.500000
    endloop
  endfacet
  facet normal 0.207912 -0.978148 0.000000
    outer loop
      vertex -6.582062 20.257504 -7.500000
      vertex -2.226456 21.183316 -7.500000
      vertex -6.582062 20.257504 7.500000
    endloop
  endfacet
  facet normal 0.000000 -1.000000 0.000000
    outer loop
      vertex 2.226456 21.183316 -7.500000
      vertex 2.226456 21.183316 7.500000
      vertex -2.226456 21.183316 7.500000
    endloop
  endfacet
  facet normal -0.000000 -1.000000 -0.000000
    outer loop
      vertex -2.226456 21.183316 -7.500000
      vertex 2.226456 21.183316 -7.500000
      vertex -2.226456 21.183316 7.500000
    endloop
  endfacet
  facet normal -0.207912 -0.978148 -0.000000
    outer loop
      vertex 6.582062 20.257504 -7.500000
      vertex 6.582062 20.257504 7.500000
      vertex 2.226456 21.183316 7.500000
    endloop
  endfacet
  facet normal -0.207912 -0.978148 -0.000000
    outer loop
      vertex 2.226456 21.183316 -7.500000
      vertex 6.582062 20.257504 -7.500000
      vertex 2.226456 21.183316 7.500000
    endloop
  endfacet
  facet normal -0.406737 -0.913545 -0.000000
    outer loop
      vertex 10.650000 18.446341 -7.500000
      vertex 10.650000 18.446341 7.500000
      vertex 6.582062 20.257504 7.500000
    endloop
  endfacet
  facet normal -0.406737 -0.913545 -0.000000
    outer loop
      vertex 6.582062 20.257504 -7.500000
      vertex 10.650000 18.446341 -7.500000
      vertex 6.582062 20.257504 7.500000
    endloop
  endfacet
  facet normal -0.587785 -0.809017 -0.000000
    outer loop
      vertex 14.252482 15.828985 -7.500000
      vertex 14.252482 15.828985 7.500000
      vertex 10.650000 18.446341 7.500000
    endloop
  endfacet
  facet normal -0.587785 -0.809017 -0.000000
    outer loop
      vertex 10.650000 18.446341 -7.500000
      vertex 14.252482 15.828985 -7.500000
      vertex 10.650000 18.446341 7.500000
    endloop
  endfacet
  facet normal -0.743145 -0.669131 0.000000
    outer loop
      vertex 17.232062 12.519826 7.500000
      vertex 14.252482 15.828985 7.500000
      vertex 17.232062 12.519826 -7.500000
    endloop
  endfacet
  facet normal -0.743145 -0.669131 0.000000
    outer loop
      vertex 17.232062 12.519826 -7.500000
      vertex 14.252482 15.828985 7.500000
      vertex 14.252482 15.828985 -7.500000
    endloop
  endfacet
  facet normal -0.866025 -0.500000 0.000000
    outer loop
      vertex 19.458518 8.663490 7.500000
      vertex 17.232062 12.519826 7.500000
      vertex 19.458518 8.663490 -7.500000
    endloop
  endfacet
  facet normal -0.866025 -0.500000 0.000000
    outer loop
      vertex 19.458518 8.663490 -7.500000
      vertex 17.232062 12.519826 7.500000
      vertex 17.232062 12.519826 -7.500000
    endloop
  endfacet
  facet normal -0.951056 -0.309017 0.000000
    outer loop
      vertex 20.834544 4.428519 7.500000
      vertex 19.458518 8.663490 7.500000
      vertex 20.834544 4.428519 -7.500000
    endloop
  endfacet
  facet normal -0.951056 -0.309017 0.000000
    outer loop
      vertex 20.834544 4.428519 -7.500000
      vertex 19.458518 8.663490 7.500000
      vertex 19.458518 8.663490 -7.500000
    endloop
  endfacet
  facet normal -0.994522 -0.104528 0.000000
    outer loop
      vertex 21.300000 0.000000 7.500000
      vertex 20.834544 4.428519 7.500000
      vertex 21.300000 0.000000 -7.500000
    endloop
  endfacet
  facet normal -0.994522 -0.104528 0.000000
    outer loop
      vertex 21.300000 0.000000 -7.500000
      vertex 20.834544 4.428519 7.500000
      vertex 20.834544 4.428519 -7.500000
    endloop
  endfacet
  facet normal -0.994522 0.104528 0.000000
    outer loop
      vertex 21.300000 0.000000 7.500000
      vertex 21.300000 0.000000 -7.500000
      vertex 20.834544 -4.428519 7.500000
    endloop
  endfacet
  facet normal -0.994522 0.104528 0.000000
    outer loop
      vertex 20.834544 -4.428519 7.500000
      vertex 21.300000 0.000000 -7.500000
      vertex 20.834544 -4.428519 -7.500000
    endloop
  endfacet
  facet normal -0.951056 0.309017 0.000000
    outer loop
      vertex 20.834544 -4.428519 7.500000
      vertex 20.834544 -4.428519 -7.500000
      vertex 19.458518 -8.663490 7.500000
    endloop
  endfacet
  facet normal -0.951056 0.309017 0.000000
    outer loop
      vertex 19.458518 -8.663490 7.500000
      vertex 20.834544 -4.428519 -7.500000
      vertex 19.458518 -8.663490 -7.500000
    endloop
  endfacet
  facet normal -0.866025 0.500000 0.000000
    outer loop
      vertex 19.458518 -8.663490 7.500000
      vertex 19.458518 -8.663490 -7.500000
      vertex 17.232062 -12.519826 7.500000
    endloop
  endfacet
  facet normal -0.866025 0.500000 0.000000
    outer loop
      vertex 17.232062 -12.519826 7.500000
      vertex 19.458518 -8.663490 -7.500000
      vertex 17.232062 -12.519826 -7.500000
    endloop
  endfacet
  facet normal -0.743145 0.669131 0.000000
    outer loop
      vertex 17.232062 -12.519826 7.500000
      vertex 17.232062 -12.519826 -7.500000
      vertex 14.252482 -15.828985 7.500000
    endloop
  endfacet
  facet normal -0.743145 0.669131 0.000000
    outer loop
      vertex 14.252482 -15.828985 7.500000
      vertex 17.232062 -12.519826 -7.500000
      vertex 14.252482 -15.828985 -7.500000
    endloop
  endfacet
  facet normal -0.587785 0.809017 0.000000
    outer loop
      vertex 14.252482 -15.828985 7.500000
      vertex 14.252482 -15.828985 -7.500000
      vertex 10.650000 -18.446341 7.500000
    endloop
  endfacet
  facet normal -0.587785 0.809017 0.000000
    outer loop
      vertex 10.650000 -18.446341 7.500000
      vertex 14.252482 -15.828985 -7.500000
      vertex 10.650000 -18.446341 -7.500000
    endloop
  endfacet
  facet normal -0.406737 0.913545 0.000000
    outer loop
      vertex 10.650000 -18.446341 7.500000
      vertex 10.650000 -18.446341 -7.500000
      vertex 6.582062 -20.257504 7.500000
    endloop
  endfacet
  facet normal -0.406737 0.913545 0.000000
    outer loop
      vertex 6.582062 -20.257504 7.500000
      vertex 10.650000 -18.446341 -7.500000
      vertex 6.582062 -20.257504 -7.500000
    endloop
  endfacet
  facet normal -0.207912 0.978148 0.000000
    outer loop
      vertex 6.582062 -20.257504 7.500000
      vertex 6.582062 -20.257504 -7.500000
      vertex 2.226456 -21.183316 7.500000
    endloop
  endfacet
  facet normal -0.207912 0.978148 0.000000
    outer loop
      vertex 2.226456 -21.183316 7.500000
      vertex 6.582062 -20.257504 -7.500000
      vertex 2.226456 -21.183316 -7.500000
    endloop
  endfacet
  facet normal 0.000000 1.000000 0.000000
    outer loop
      vertex 2.226456 -21.183316 7.500000
      vertex 2.226456 -21.183316 -7.500000
      vertex -2.226456 -21.183316 7.500000
    endloop
  endfacet
  facet normal 0.000000 1.000000 -0.000000
    outer loop
      vertex -2.226456 -21.183316 7.500000
      vertex 2.226456 -21.183316 -7.500000
      vertex -2.226456 -21.183316 -7.500000
    endloop
  endfacet
  facet normal 0.207912 0.978148 -0.000000
    outer loop
      vertex -2.226456 -21.183316 7.500000
      vertex -2.226456 -21.183316 -7.500000
      vertex -6.582062 -20.257504 7.500000
    endloop
  endfacet
  facet normal 0.207912 0.978148 -0.000000
    outer loop
      vertex -6.582062 -20.257504 7.500000
      vertex -2.226456 -21.183316 -7.500000
      vertex -6.582062 -20.257504 -7.500000
    endloop
  endfacet
  facet normal 0.406737 0.913545 -0.000000
    outer loop
      vertex -6.582062 -20.257504 7.500000
      vertex -6.582062 -20.257504 -7.500000
      vertex -10.650000 -18.446341 7.500000
    endloop
  endfacet
  facet normal 0.406737 0.913545 -0.000000
    outer loop
      vertex -10.650000 -18.446341 7.500000
      vertex -6.582062 -20.257504 -7.500000
      vertex -10.650000 -18.446341 -7.500000
    endloop
  endfacet
  facet normal 0.587785 0.809017 -0.000000
    outer loop
      vertex -10.650000 -18.446341 7.500000
      vertex -10.650000 -18.446341 -7.500000
      vertex -14.252482 -15.828985 7.500000
    endloop
  endfacet
  facet normal 0.587785 0.809017 -0.000000
    outer loop
      vertex -14.252482 -15.828985 7.500000
      vertex -10.650000 -18.446341 -7.500000
      vertex -14.252482 -15.828985 -7.500000
    endloop
  endfacet
  facet normal 0.743145 0.669131 0.000000
    outer loop
      vertex -17.232062 -12.519826 7.500000
      vertex -14.252482 -15.828985 7.500000
      vertex -14.252482 -15.828985 -7.500000
    endloop
  endfacet
  facet normal 0.743145 0.669131 0.000000
    outer loop
      vertex -17.232062 -12.519826 -7.500000
      vertex -17.232062 -12.519826 7.500000
      vertex -14.252482 -15.828985 -7.500000
    endloop
  endfacet
  facet normal 0.866025 0.500000 0.000000
    outer loop
      vertex -19.458518 -8.663490 7.500000
      vertex -17.232062 -12.519826 7.500000
      vertex -17.232062 -12.519826 -7.500000
    endloop
  endfacet
  facet normal 0.866025 0.500000 0.000000
    outer loop
      vertex -19.458518 -8.663490 -7.500000
      vertex -19.458518 -8.663490 7.500000
      vertex -17.232062 -12.519826 -7.500000
    endloop
  endfacet
  facet normal 0.951056 0.309017 0.000000
    outer loop
      vertex -20.834544 -4.428519 7.500000
      vertex -19.458518 -8.663490 7.500000
      vertex -19.458518 -8.663490 -7.500000
    endloop
  endfacet
  facet normal 0.951056 0.309017 0.000000
    outer loop
      vertex -20.834544 -4.428519 -7.500000
      vertex -20.834544 -4.428519 7.500000
      vertex -19.458518 -8.663490 -7.500000
    endloop
  endfacet
  facet normal 0.000000 0.000000 1.000000
    outer loop
      vertex -24.942764 5.301748 7.500000
      vertex -25.500000 0.000000 7.500000
      vertex -24.942764 -5.301748 7.500000
    endloop
  endfacet
  facet normal 0.000000 0.000000 1.000000
    outer loop
      vertex -20.629933 -14.988524 7.500000
      vertex -24.942764 5.301748 7.500000
      vertex -23.295409 -10.371784 7.500000
    endloop
  endfacet
  facet normal 0.000000 0.000000 1.000000
    outer loop
      vertex -23.295409 -10.371784 7.500000
      vertex -24.942764 5.301748 7.500000
      vertex -24.942764 -5.301748 7.500000
    endloop
  endfacet
  facet normal 0.000000 0.000000 1.000000
    outer loop
      vertex -17.062830 -18.950193 7.500000
      vertex -24.942764 5.301748 7.500000
      vertex -20.629933 -14.988524 7.500000
    endloop
  endfacet
  facet normal -0.000000 -0.000000 1.000000
    outer loop
      vertex -20.834544 -4.428519 7.500000
      vertex -24.942764 5.301748 7.500000
      vertex -17.062830 -18.950193 7.500000
    endloop
  endfacet
  facet normal 0.000000 -0.000000 1.000000
    outer loop
      vertex 17.232062 -12.519826 7.500000
      vertex 14.252482 -15.828985 7.500000
      vertex 20.629933 -14.988524 7.500000
    endloop
  endfacet
  facet normal 0.000000 0.000000 1.000000
    outer loop
      vertex -20.834544 4.428519 7.500000
      vertex -19.458518 8.663490 7.500000
      vertex -24.942764 5.301748 7.500000
    endloop
  endfacet
  facet normal -0.000000 0.000000 1.000000
    outer loop
      vertex -2.226456 -21.183316 7.500000
      vertex -6.582062 -20.257504 7.500000
      vertex -2.665476 -25.360308 7.500000
    endloop
  endfacet
  facet normal 0.000000 0.000000 1.000000
    outer loop
      vertex 19.458518 8.663490 7.500000
      vertex 20.834544 4.428519 7.500000
      vertex 24.942764 5.301748 7.500000
    endloop
  endfacet
  facet normal 0.000000 0.000000 1.000000
    outer loop
      vertex 17.232062 12.519826 7.500000
      vertex 19.458518 8.663490 7.500000
      vertex 23.295409 10.371784 7.500000
    endloop
  endfacet
  facet normal 0.000000 0.000000 1.000000
    outer loop
      vertex 14.252482 15.828985 7.500000
      vertex 17.232062 12.519826 7.500000
      vertex 20.629933 14.988524 7.500000
    endloop
  endfacet
  facet normal 0.000000 0.000000 1.000000
    outer loop
      vertex 2.226456 21.183316 7.500000
      vertex 6.582062 20.257504 7.500000
      vertex 7.879933 24.251941 7.500000
    endloop
  endfacet
  facet normal 0.000000 0.000000 1.000000
    outer loop
      vertex -6.582062 20.257504 7.500000
      vertex -2.226456 21.183316 7.500000
      vertex 2.665476 25.360308 7.500000
    endloop
  endfacet
  facet normal 0.000000 -0.000000 1.000000
    outer loop
      vertex -12.750000 22.083648 7.500000
      vertex -24.942764 5.301748 7.500000
      vertex -7.879933 24.251941 7.500000
    endloop
  endfacet
  facet normal 0.000000 -0.000000 1.000000
    outer loop
      vertex -17.062830 18.950193 7.500000
      vertex -24.942764 5.301748 7.500000
      vertex -12.750000 22.083648 7.500000
    endloop
  endfacet
  facet normal 0.000000 -0.000000 1.000000
    outer loop
      vertex -20.629933 14.988524 7.500000
      vertex -24.942764 5.301748 7.500000
      vertex -17.062830 18.950193 7.500000
    endloop
  endfacet
  facet normal 0.000000 -0.000000 1.000000
    outer loop
      vertex -23.295409 10.371784 7.500000
      vertex -24.942764 5.301748 7.500000
      vertex -20.629933 14.988524 7.500000
    endloop
  endfacet
  facet normal -0.000000 -0.000000 1.000000
    outer loop
      vertex -19.458518 -8.663490 7.500000
      vertex -20.834544 -4.428519 7.500000
      vertex -17.062830 -18.950193 7.500000
    endloop
  endfacet
  facet normal 0.000000 -0.000000 1.000000
    outer loop
      vertex 19.458518 -8.663490 7.500000
      vertex 17.232062 -12.519826 7.500000
      vertex 23.295409 -10.371784 7.500000
    endloop
  endfacet
  facet normal 0.000000 0.000000 1.000000
    outer loop
      vertex 6.582062 20.257504 7.500000
      vertex 10.650000 18.446341 7.500000
      vertex 12.750000 22.083648 7.500000
    endloop
  endfacet
  facet normal 0.000000 0.000000 1.000000
    outer loop
      vertex -7.879933 24.251941 7.500000
      vertex -24.942764 5.301748 7.500000
      vertex -17.232062 12.519826 7.500000
    endloop
  endfacet
  facet normal 0.000000 -0.000000 1.000000
    outer loop
      vertex -7.879933 24.251941 7.500000
      vertex -14.252482 15.828985 7.500000
      vertex -2.665476 25.360308 7.500000
    endloop
  endfacet
  facet normal 0.000000 0.000000 1.000000
    outer loop
      vertex -7.879933 24.251941 7.500000
      vertex -17.232062 12.519826 7.500000
      vertex -14.252482 15.828985 7.500000
    endloop
  endfacet
  facet normal 0.000000 0.000000 1.000000
    outer loop
      vertex -14.252482 15.828985 7.500000
      vertex -10.650000 18.446341 7.500000
      vertex -2.665476 25.360308 7.500000
    endloop
  endfacet
  facet normal 0.000000 -0.000000 1.000000
    outer loop
      vertex -2.665476 25.360308 7.500000
      vertex -6.582062 20.257504 7.500000
      vertex 2.665476 25.360308 7.500000
    endloop
  endfacet
  facet normal 0.000000 0.000000 1.000000
    outer loop
      vertex -10.650000 18.446341 7.500000
      vertex -6.582062 20.257504 7.500000
      vertex -2.665476 25.360308 7.500000
    endloop
  endfacet
  facet normal 0.000000 -0.000000 1.000000
    outer loop
      vertex 2.665476 25.360308 7.500000
      vertex -2.226456 21.183316 7.500000
      vertex 7.879933 24.251941 7.500000
    endloop
  endfacet
  facet normal 0.000000 0.000000 1.000000
    outer loop
      vertex -2.226456 21.183316 7.500000
      vertex 2.226456 21.183316 7.500000
      vertex 7.879933 24.251941 7.500000
    endloop
  endfacet
  facet normal 0.000000 -0.000000 1.000000
    outer loop
      vertex 7.879933 24.251941 7.500000
      vertex 6.582062 20.257504 7.500000
      vertex 12.750000 22.083648 7.500000
    endloop
  endfacet
  facet normal 0.000000 0.000000 1.000000
    outer loop
      vertex 20.834544 4.428519 7.500000
      vertex 21.300000 0.000000 7.500000
      vertex 25.500000 0.000000 7.500000
    endloop
  endfacet
  facet normal 0.000000 -0.000000 1.000000
    outer loop
      vertex 12.750000 22.083648 7.500000
      vertex 10.650000 18.446341 7.500000
      vertex 17.062830 18.950193 7.500000
    endloop
  endfacet
  facet normal -0.000000 0.000000 1.000000
    outer loop
      vertex -19.458518 8.663490 7.500000
      vertex -17.232062 12.519826 7.500000
      vertex -24.942764 5.301748 7.500000
    endloop
  endfacet
  facet normal 0.000000 -0.000000 1.000000
    outer loop
      vertex 17.062830 18.950193 7.500000
      vertex 14.252482 15.828985 7.500000
      vertex 20.629933 14.988524 7.500000
    endloop
  endfacet
  facet normal 0.000000 -0.000000 1.000000
    outer loop
      vertex 20.629933 14.988524 7.500000
      vertex 17.232062 12.519826 7.500000
      vertex 23.295409 10.371784 7.500000
    endloop
  endfacet
  facet normal 0.000000 -0.000000 1.000000
    outer loop
      vertex 23.295409 10.371784 7.500000
      vertex 19.458518 8.663490 7.500000
      vertex 24.942764 5.301748 7.500000
    endloop
  endfacet
  facet normal 0.000000 -0.000000 1.000000
    outer loop
      vertex 24.942764 5.301748 7.500000
      vertex 20.834544 4.428519 7.500000
      vertex 25.500000 0.000000 7.500000
    endloop
  endfacet
  facet normal 0.000000 0.000000 1.000000
    outer loop
      vertex 25.500000 0.000000 7.500000
      vertex 21.300000 0.000000 7.500000
      vertex 24.942764 -5.301748 7.500000
    endloop
  endfacet
  facet normal -0.000000 0.000000 1.000000
    outer loop
      vertex 24.942764 -5.301748 7.500000
      vertex 20.834544 -4.428519 7.500000
      vertex 23.295409 -10.371784 7.500000
    endloop
  endfacet
  facet normal 0.000000 0.000000 1.000000
    outer loop
      vertex 10.650000 18.446341 7.500000
      vertex 14.252482 15.828985 7.500000
      vertex 17.062830 18.950193 7.500000
    endloop
  endfacet
  facet normal 0.000000 -0.000000 1.000000
    outer loop
      vertex 20.834544 -4.428519 7.500000
      vertex 19.458518 -8.663490 7.500000
      vertex 23.295409 -10.371784 7.500000
    endloop
  endfacet
  facet normal 0.000000 0.000000 1.000000
    outer loop
      vertex 23.295409 -10.371784 7.500000
      vertex 17.232062 -12.519826 7.500000
      vertex 20.629933 -14.988524 7.500000
    endloop
  endfacet
  facet normal 0.000000 0.000000 1.000000
    outer loop
      vertex 20.629933 -14.988524 7.500000
      vertex 14.252482 -15.828985 7.500000
      vertex 17.062830 -18.950193 7.500000
    endloop
  endfacet
  facet normal -0.000000 0.000000 1.000000
    outer loop
      vertex 17.062830 -18.950193 7.500000
      vertex 10.650000 -18.446341 7.500000
      vertex 12.750000 -22.083648 7.500000
    endloop
  endfacet
  facet normal -0.000000 0.000000 1.000000
    outer loop
      vertex 12.750000 -22.083648 7.500000
      vertex 6.582062 -20.257504 7.500000
      vertex 7.879933 -24.251941 7.500000
    endloop
  endfacet
  facet normal -0.000000 0.000000 1.000000
    outer loop
      vertex 7.879933 -24.251941 7.500000
      vertex 2.226456 -21.183316 7.500000
      vertex 2.665476 -25.360308 7.500000
    endloop
  endfacet
  facet normal 0.000000 -0.000000 1.000000
    outer loop
      vertex 21.300000 0.000000 7.500000
      vertex 20.834544 -4.428519 7.500000
      vertex 24.942764 -5.301748 7.500000
    endloop
  endfacet
  facet normal -0.000000 0.000000 1.000000
    outer loop
      vertex 2.665476 -25.360308 7.500000
      vertex -2.226456 -21.183316 7.500000
      vertex -2.665476 -25.360308 7.500000
    endloop
  endfacet
  facet normal 0.000000 0.000000 1.000000
    outer loop
      vertex -2.665476 -25.360308 7.500000
      vertex -6.582062 -20.257504 7.500000
      vertex -7.879933 -24.251941 7.500000
    endloop
  endfacet
  facet normal -0.000000 0.000000 1.000000
    outer loop
      vertex -6.582062 -20.257504 7.500000
      vertex -10.650000 -18.446341 7.500000
      vertex -7.879933 -24.251941 7.500000
    endloop
  endfacet
  facet normal 0.000000 0.000000 1.000000
    outer loop
      vertex -7.879933 -24.251941 7.500000
      vertex -14.252482 -15.828985 7.500000
      vertex -12.750000 -22.083648 7.500000
    endloop
  endfacet
  facet normal 0.000000 0.000000 1.000000
    outer loop
      vertex -12.750000 -22.083648 7.500000
      vertex -17.232062 -12.519826 7.500000
      vertex -17.062830 -18.950193 7.500000
    endloop
  endfacet
  facet normal -0.000000 -0.000000 1.000000
    outer loop
      vertex -17.232062 -12.519826 7.500000
      vertex -19.458518 -8.663490 7.500000
      vertex -17.062830 -18.950193 7.500000
    endloop
  endfacet
  facet normal 0.000000 0.000000 1.000000
    outer loop
      vertex -20.834544 -4.428519 7.500000
      vertex -21.300000 0.000000 7.500000
      vertex -24.942764 5.301748 7.500000
    endloop
  endfacet
  facet normal 0.000000 -0.000000 1.000000
    outer loop
      vertex 14.252482 -15.828985 7.500000
      vertex 10.650000 -18.446341 7.500000
      vertex 17.062830 -18.950193 7.500000
    endloop
  endfacet
  facet normal 0.000000 -0.000000 1.000000
    outer loop
      vertex 10.650000 -18.446341 7.500000
      vertex 6.582062 -20.257504 7.500000
      vertex 12.750000 -22.083648 7.500000
    endloop
  endfacet
  facet normal 0.000000 -0.000000 1.000000
    outer loop
      vertex 6.582062 -20.257504 7.500000
      vertex 2.226456 -21.183316 7.500000
      vertex 7.879933 -24.251941 7.500000
    endloop
  endfacet
  facet normal 0.000000 -0.000000 1.000000
    outer loop
      vertex 2.226456 -21.183316 7.500000
      vertex -2.226456 -21.183316 7.500000
      vertex 2.665476 -25.360308 7.500000
    endloop
  endfacet
  facet normal -0.000000 -0.000000 1.000000
    outer loop
      vertex -14.252482 -15.828985 7.500000
      vertex -17.232062 -12.519826 7.500000
      vertex -12.750000 -22.083648 7.500000
    endloop
  endfacet
  facet normal -0.000000 -0.000000 1.000000
    outer loop
      vertex -10.650000 -18.446341 7.500000
      vertex -14.252482 -15.828985 7.500000
      vertex -7.879933 -24.251941 7.500000
    endloop
  endfacet
  facet normal 0.000000 0.000000 1.000000
    outer loop
      vertex -21.300000 0.000000 7.500000
      vertex -20.834544 4.428519 7.500000
      vertex -24.942764 5.301748 7.500000
    endloop
  endfacet
endsolid OpenSCAD_Model
